<?xml version="1.0" standalone="no"?>
<!DOCTYPE svg PUBLIC "-//W3C//DTD SVG 1.1//EN" "http://www.w3.org/Graphics/SVG/1.1/DTD/svg11.dtd" >
<svg>
<metadata>
Created by FontForge 20090622 at Tue Apr 25 18:42:47 2017
 By deploy user
Filete, el buen diseno. Todos los derechos reservados, 2015.
</metadata>
<defs>
<font id="BCH-Medium" horiz-adv-x="600" >
  <font-face 
    font-family="BCH Medium"
    font-weight="500"
    font-stretch="normal"
    units-per-em="1000"
    panose-1="0 0 6 0 0 0 0 0 0 0"
    ascent="800"
    descent="-200"
    x-height="490"
    cap-height="640"
    bbox="-86 -230 1215 848"
    underline-thickness="50"
    underline-position="-50"
    unicode-range="U+0020-U+F8FF"
  />
<missing-glyph horiz-adv-x="534" 
d="M17 700h500v-700h-500v700zM437 650h-340l170 -255zM67 95l170 255l-170 255v-510zM467 95v510l-170 -255zM437 50l-170 255l-170 -255h340z" />
    <glyph glyph-name="b_one" unicode="b&#x31;" 
d="M488 306q0 -79 -55 -133.5t-133 -54.5t-133 54.5t-55 133.5q0 78 55 133t133 55t133 -55t55 -133zM441 306q0 58 -41.5 99t-99.5 41t-99.5 -41t-41.5 -99t41.5 -99.5t99.5 -41.5t99.5 41.5t41.5 99.5zM382 306q0 34 -24 57.5t-58 23.5t-58 -23.5t-24 -57.5t24 -57.5
t58 -23.5t58 23.5t24 57.5z" />
    <glyph glyph-name="b_two" unicode="b&#x32;" 
d="M300 494q79 0 134 -55.5t55 -133.5q0 -79 -55 -134t-134 -55t-134 55t-55 134q0 78 55 133.5t134 55.5zM300 434q-53 0 -91 -38t-38 -91q0 -54 38 -91.5t91 -37.5t91 37.5t38 91.5q0 53 -38 91t-91 38z" />
    <glyph glyph-name="b_three" unicode="b&#x33;" 
d="M301 494q78 0 133 -55t55 -133t-55 -133t-133 -55q-77 0 -133 54t-56 134q0 78 55 133t134 55zM301 432q-52 0 -88.5 -37t-36.5 -89q0 -30 13 -56l63 68l49 -51l49 51l63 -68q12 27 12 56q0 52 -36 89t-88 37z" />
    <glyph glyph-name="b_four" unicode="b&#x34;" 
d="M301 494q78 0 132.5 -55t54.5 -133t-54.5 -133t-132.5 -55q-79 0 -134 55t-55 133t55 133t134 55zM301 181q52 0 88 36.5t36 88.5q0 41 -24 74t-62 46l-39 -150l-38 150q-38 -13 -62 -46t-24 -74q0 -52 36.5 -88.5t88.5 -36.5z" />
    <glyph glyph-name="b_five" unicode="b&#x35;" 
d="M301 494q78 0 132.5 -55t54.5 -133t-54.5 -133t-132.5 -55q-79 0 -134 55t-55 133t55 133t134 55zM301 181q52 0 88 36.5t36 88.5q0 68 -57 107q2 -47 -19 -84q-29 -53 -88 -70q43 45 43 104q0 37 -17 68q-47 -5 -79 -40.5t-32 -84.5q0 -52 36.5 -88.5t88.5 -36.5z" />
    <glyph glyph-name="b_six" unicode="b&#x36;" 
d="M300 213l-92 -91q-33 -31 -77 15q-48 46 -15 77l89 89l-89 89q-32 31 15 78q45 46 77 14l92 -91l91 92q33 32 78 -15q46 -48 15 -77l-89 -90l89 -89q31 -31 -15 -77q-46 -47 -78 -15zM300 227q32 0 54 22.5t22 53.5t-22 53.5t-54 22.5t-54.5 -22.5t-22.5 -53.5
t22.5 -53.5t54.5 -22.5z" />
    <glyph glyph-name="b_seven" unicode="b&#x37;" 
d="M420 277l56 -57q19 -18 19 -44.5t-19 -45.5t-45.5 -19.5t-45.5 18.5l-55 55q-13 -4 -30 -4t-30 4l-56 -55q-19 -19 -45.5 -19t-45.5 19t-19 45.5t19 44.5l57 57q-3 14 -3 27q0 14 3 26l-57 58q-19 19 -19 45t19 46q19 19 45.5 19t45.5 -19l56 -55q15 3 30 3t30 -3l55 55
q19 19 45.5 19t45.5 -19q19 -20 19 -46t-19 -45l-56 -57q3 -14 3 -27q0 -14 -3 -26z" />
    <glyph glyph-name="b_eight" unicode="b&#x38;" 
d="M393 304l83 -84q20 -18 20 -45t-20 -46q-19 -19 -45.5 -19t-45.5 19l-85 85l-86 -86q-19 -19 -45.5 -19t-45.5 19q-19 20 -19 46.5t19 44.5l84 84l-84 84q-19 19 -19 46t19 46q19 18 45.5 18t45.5 -18l86 -86l85 86q19 18 45.5 18t45.5 -18q20 -19 20 -46t-20 -46z
M300 228q31 0 53 22t22 53q0 32 -22 54t-53 22q-32 0 -54 -22t-22 -54q0 -31 22.5 -53t53.5 -22z" />
    <glyph glyph-name="d_one" unicode="d&#x31;" horiz-adv-x="682" 
d="M166 392q-50 0 -79.5 32.5t-29.5 89.5t29.5 89.5t79.5 32.5t79.5 -32.5t29.5 -89.5t-29.5 -89.5t-79.5 -32.5zM212 223l206 403h58l-207 -403h-57zM166 593q-26 0 -41 -20t-15 -59t15 -58.5t41 -19.5q57 0 57 78q0 39 -15.5 59t-41.5 20zM405 336q0 57 29.5 89t79.5 32
q51 0 80 -32t29 -89t-29.5 -89.5t-79.5 -32.5t-79.5 32.5t-29.5 89.5zM514 414q-26 0 -41 -19.5t-15 -58.5t15 -59t41 -20q57 0 57 79q0 78 -57 78zM272 30q20 0 32 16l22 -21q-17 -28 -54 -28q-72 0 -72 85q0 44 20 65t53 21t52 -28l-22 -22q-12 16 -30 16q-38 0 -39 -52
q1 -52 38 -52zM551 167q71 0 71 -85t-71 -85q-34 0 -52.5 22t-18.5 63t18.5 63t52.5 22zM54 165h50q34 0 56.5 -20.5t22.5 -62.5t-22 -62t-57 -20h-50v165zM344 164h126v-33h-46v-131h-34v131h-46v33zM551 29q37 0 38 53q-1 53 -38 53t-37 -53t37 -53zM89 33h17q43 0 43 49
t-43 49h-17v-98z" />
    <glyph glyph-name="f_i" unicode="fi" horiz-adv-x="603" 
d="M303 729q94 0 152 -29l-24 -75q-46 21 -117 21q-110 0 -110 -94v-62h340v-490h-104v410h-236v-410h-103v410h-79v80h79v64q0 88 49 131.5t153 43.5z" />
    <glyph glyph-name=".notdef" horiz-adv-x="534" 
d="M17 700h500v-700h-500v700zM437 650h-340l170 -255zM67 95l170 255l-170 255v-510zM467 95v510l-170 -255zM437 50l-170 255l-170 -255h340z" />
    <glyph glyph-name=".null" horiz-adv-x="0" 
 />
    <glyph glyph-name="nonmarkingreturn" horiz-adv-x="333" 
 />
    <glyph glyph-name="space" unicode=" " horiz-adv-x="227" 
 />
    <glyph glyph-name="exclam" unicode="!" horiz-adv-x="248" 
d="M82 184l-20 482h124l-20 -482h-84zM124 110q27 0 44 -17t17 -42t-17 -42.5t-44 -17.5t-44.5 17.5t-17.5 42.5t17.5 42t44.5 17z" />
    <glyph glyph-name="quotedbl" unicode="&#x22;" horiz-adv-x="346" 
d="M131 453h-69v267h95zM271 453h-68v267h95z" />
    <glyph glyph-name="numbersign" unicode="#" horiz-adv-x="632" 
d="M583 443v-67h-119l-14 -151h120v-67h-125l-15 -157h-73l14 157h-138l-14 -157h-74l15 157h-110v67h115l14 151h-116v67h122l14 162h74l-15 -162h138l15 162h73l-14 -162h113zM239 225h138l14 151h-138z" />
    <glyph glyph-name="dollar" unicode="$" horiz-adv-x="511" 
d="M472 174q0 -68 -40 -114.5t-122 -59.5v-149h-85v145q-54 3 -104.5 23t-77.5 43l32 82q88 -61 181 -61q54 0 83 23.5t29 67.5q0 38 -29 61t-108 47q-88 26 -132 68t-44 118q0 68 45 113.5t125 55.5v96h85v-96q48 -4 89 -22t62 -37l-49 -71q-19 17 -57.5 31.5t-84.5 14.5
q-112 0 -112 -82q0 -40 29 -64t102 -47q97 -31 140 -72t43 -114z" />
    <glyph glyph-name="percent" unicode="%" horiz-adv-x="877" 
d="M197 641q73 0 116.5 -49t43.5 -135q0 -84 -43.5 -133.5t-116.5 -49.5t-116.5 49.5t-43.5 134.5t43.5 134t116.5 49zM241 0l323 640h84l-322 -640h-85zM197 580q-40 0 -63.5 -31t-23.5 -91q0 -61 23.5 -92t63.5 -31t63.5 31t23.5 92q0 60 -23.5 91t-63.5 31zM680 360
q73 0 116.5 -49.5t43.5 -134.5t-43.5 -134.5t-116.5 -49.5t-116.5 49.5t-43.5 134.5t43.5 134.5t116.5 49.5zM680 298q-40 0 -63.5 -31t-23.5 -91t23.5 -91t63.5 -31t63.5 31t23.5 91t-23.5 91t-63.5 31z" />
    <glyph glyph-name="ampersand" unicode="&#x26;" horiz-adv-x="646" 
d="M266 645q87 0 132 -40t45 -111q0 -57 -41 -102.5t-86 -71.5l134 -124q21 40 21 82q0 14 -2 24h82q2 -10 2 -31q0 -61 -40 -130l117 -107l-57 -49l-103 94q-34 -45 -89 -70t-119 -25q-94 0 -155.5 47t-61.5 125q0 111 143 177l-27.5 23.5t-25.5 25t-26.5 33t-15.5 35
t-8 42.5q0 70 47 111.5t134 41.5zM266 567q-88 0 -88 -78q0 -11 2.5 -21.5t8.5 -21t10.5 -17.5t15 -17l15 -14t17 -14t14.5 -12q31 17 59.5 48t28.5 69q0 40 -22.5 59t-60.5 19zM407 136l-162 149q-50 -25 -74 -50.5t-24 -67.5q0 -46 31.5 -72.5t87.5 -26.5q90 0 141 68z
" />
    <glyph glyph-name="quotesingle" unicode="'" horiz-adv-x="206" 
d="M131 453h-69v267h95z" />
    <glyph glyph-name="parenleft" unicode="(" horiz-adv-x="321" 
d="M145 242q0 -139 43.5 -247t126.5 -215h-106q-164 201 -164 462q0 147 46.5 269.5t117.5 209.5h106q-170 -220 -170 -479z" />
    <glyph glyph-name="parenright" unicode=")" horiz-adv-x="321" 
d="M176 242q0 259 -170 479h106q71 -88 118 -210.5t47 -268.5q0 -260 -165 -462h-106q83 107 126.5 215t43.5 247z" />
    <glyph glyph-name="asterisk" unicode="*" horiz-adv-x="429" 
d="M283 322l-68 107l-68 -107l-66 44l70 94l-105 34l27 73l107 -43l-2 116h75l-3 -116l106 43l27 -73l-105 -34l71 -94z" />
    <glyph glyph-name="plus" unicode="+" horiz-adv-x="516" 
d="M469 308v-74h-173v-173h-76v173h-173v74h173v172h76v-172h173z" />
    <glyph glyph-name="comma" unicode="," horiz-adv-x="251" 
d="M122 134q74 0 74 -98q-1 -70 -39.5 -108.5t-107.5 -42.5v47q30 3 53 19t25 37v8q-5 -3 -16 -3q-25 0 -42.5 20t-17.5 49q0 34 19.5 53t51.5 19z" />
    <glyph glyph-name="hyphen" unicode="-" horiz-adv-x="394" 
d="M330 226h-267v92h267v-92z" />
    <glyph glyph-name="period" unicode="." horiz-adv-x="245" 
d="M51 63q0 30 20 50.5t51 20.5t51 -20.5t20 -50.5t-20 -50.5t-51 -20.5t-51 20.5t-20 50.5z" />
    <glyph glyph-name="slash" unicode="/" horiz-adv-x="489" 
d="M22 -220l351 940h93l-352 -940h-92z" />
    <glyph glyph-name="zero" unicode="0" horiz-adv-x="584" 
d="M292 635q83 0 138 -44t77.5 -114t22.5 -164q0 -70 -13 -127t-40.5 -101.5t-74.5 -69.5t-110 -25q-123 0 -180.5 88.5t-57.5 234.5q0 94 22.5 164t77.5 114t138 44zM292 552q-134 0 -134 -239q0 -240 134 -240q133 0 133 240q0 239 -133 239z" />
    <glyph glyph-name="one" unicode="1" horiz-adv-x="384" 
d="M210 0v522l-152 -93l-38 74l203 122h91v-625h-104z" />
    <glyph glyph-name="two" unicode="2" horiz-adv-x="518" 
d="M247 635q107 0 159 -49.5t52 -127.5q0 -74 -52 -144.5t-222 -226.5v-4h280v-83h-417v72q138 128 201.5 195.5t84 104t20.5 75.5q0 45 -28.5 72t-85.5 27q-76 0 -160 -56l-30 83q89 62 198 62z" />
    <glyph glyph-name="three" unicode="3" horiz-adv-x="510" 
d="M241 635q98 0 148.5 -47t50.5 -119q0 -58 -30.5 -94t-85.5 -47v-4q59 -12 96 -50.5t37 -104.5q0 -81 -57 -130t-165 -49q-113 0 -190 51l24 78q79 -45 154 -45q129 0 129 104q0 109 -147 109h-48v72h48q131 0 131 99q0 93 -106 93q-76 0 -151 -57l-29 77q15 13 36 25.5
t65 25.5t90 13z" />
    <glyph glyph-name="four" unicode="4" horiz-adv-x="554" 
d="M426 0h-102v165h-288l-8 75l288 385h110v-381h92v-79h-92v-165zM322 512l-201 -268h203v268h-2z" />
    <glyph glyph-name="five" unicode="5" horiz-adv-x="495" 
d="M191 538l-19 -168q34 9 86 9q85 0 137 -49.5t52 -135.5q0 -94 -61.5 -149t-172.5 -55q-105 0 -174 51l24 79q63 -46 142 -46q138 0 138 122q0 116 -135 116q-76 0 -135 -22l36 335h310v-87h-228z" />
    <glyph glyph-name="six" unicode="6" horiz-adv-x="537" 
d="M297 378q96 0 147 -50t51 -137t-58 -144t-154 -57q-230 0 -230 296q0 66 16 126t48 111.5t89 81.5t131 30q76 0 118 -24l-20 -76q-43 19 -91 19q-81 0 -129.5 -57t-57.5 -164q55 45 140 45zM285 70q52 0 83 31.5t31 86.5q0 56 -30 86.5t-88 30.5q-72 0 -127 -46
q7 -189 131 -189z" />
    <glyph glyph-name="seven" unicode="7" horiz-adv-x="468" 
d="M183 0h-106l255 539v3h-295v83h405v-73z" />
    <glyph glyph-name="eight" unicode="8" horiz-adv-x="539" 
d="M49 154q0 36 13 66.5t37.5 52t44.5 34.5t48 26q-115 57 -115 155q0 69 51.5 110t145.5 41q98 0 143.5 -40t45.5 -106q0 -55 -28.5 -90t-82.5 -70q68 -33 102.5 -72t34.5 -98q0 -75 -55.5 -124t-166.5 -49q-112 0 -165 45t-53 119zM274 567q-49 0 -75 -21t-26 -61
q0 -39 28 -67t83 -52q90 58 90 122q0 79 -100 79zM387 163q0 84 -130 134q-109 -55 -109 -135q0 -45 30.5 -70.5t90.5 -25.5q57 0 87.5 27.5t30.5 69.5z" />
    <glyph glyph-name="nine" unicode="9" horiz-adv-x="531" 
d="M251 635q115 0 171 -76t56 -210q0 -103 -27.5 -181.5t-92.5 -128t-162 -49.5q-74 0 -116 21l18 78q39 -18 94 -18q164 0 183 215q-71 -39 -145 -39q-86 0 -137 47t-51 132q0 92 55.5 150.5t153.5 58.5zM136 430q0 -53 28.5 -82.5t83.5 -29.5q64 0 128 39q-8 197 -125 197
q-53 0 -84 -33t-31 -91z" />
    <glyph glyph-name="colon" unicode=":" horiz-adv-x="263" 
d="M61 414q0 31 19.5 51t51.5 20q30 0 50 -20.5t20 -50.5t-20 -50.5t-50 -20.5q-32 0 -51.5 20t-19.5 51zM61 63q0 30 19.5 50.5t51.5 20.5q30 0 50 -20.5t20 -50.5t-20 -50.5t-50 -20.5q-32 0 -51.5 20t-19.5 51z" />
    <glyph glyph-name="semicolon" unicode=";" horiz-adv-x="276" 
d="M138 487q32 0 52 -20.5t20 -51.5q0 -30 -20 -50t-52 -20q-31 0 -51 20t-20 50q0 31 20 51.5t51 20.5zM138 132q73 0 73 -90q-1 -75 -39.5 -115t-107.5 -43v47q30 3 53 18.5t26 36.5l-1 9q-5 -3 -15 -3q-24 0 -42 20t-18 49q0 32 20 51.5t51 19.5z" />
    <glyph glyph-name="less" unicode="&#x3c;" horiz-adv-x="428" 
d="M375 422l-251 -153v-4l251 -155l-48 -54l-293 187v46l291 190z" />
    <glyph glyph-name="equal" unicode="=" horiz-adv-x="552" 
d="M66 325v74h420v-74h-420zM66 134v75h420v-75h-420z" />
    <glyph glyph-name="greater" unicode="&#x3e;" horiz-adv-x="428" 
d="M394 289v-46l-293 -187l-48 54l251 155v4l-251 153l50 57z" />
    <glyph glyph-name="question" unicode="?" horiz-adv-x="422" 
d="M208 668q87 0 132.5 -43.5t45.5 -120.5q0 -43 -20 -79.5t-42 -56t-65 -51.5q-38 -28 -52 -48t-14 -58v-23h-84v38q0 43 21.5 75t70.5 69q29 21 44.5 34.5t31 39.5t15.5 55q0 87 -103 87q-35 0 -68.5 -9.5t-49.5 -18.5l-16 -10l-15 74q6 5 18.5 12.5t56 20.5t93.5 13z
M154 115q29 0 46 -17t17 -44q0 -26 -17.5 -44t-45.5 -18q-29 0 -47 18t-18 44q0 27 17.5 44t47.5 17z" />
    <glyph glyph-name="at" unicode="@" horiz-adv-x="1027" 
d="M542 730q194 0 314.5 -113t120.5 -304q0 -323 -198 -323q-61 0 -100 32t-46 82q-45 -114 -163 -114q-86 0 -138 62t-52 187q0 127 70 194.5t196 67.5q53 0 99 -16.5t65 -32.5l20 -16v-298q0 -76 67 -76q46 0 76 58.5t30 190.5q0 157 -98 254t-264 97q-188 0 -305 -113
t-117 -303q0 -188 99 -296.5t282 -108.5q54 0 102.5 9t70.5 18l22 9l22 -64q-9 -5 -26.5 -12t-73.5 -19t-114 -12q-123 0 -214 37t-143 103t-76.5 148.5t-24.5 182.5q0 156 67 268.5t177.5 166.5t252.5 54zM627 234v152q-2 2 -12 8t-34 13.5t-49 7.5q-71 0 -110.5 -42.5
t-39.5 -130.5q0 -167 119 -167q62 0 93.5 43t32.5 116z" />
    <glyph glyph-name="A" unicode="A" horiz-adv-x="589" 
d="M171 170l-53 -170h-107l206 640h155l206 -640h-107l-53 170h-247zM303 554h-17l-91 -298h200z" />
    <glyph glyph-name="B" unicode="B" horiz-adv-x="558" 
d="M385 332v-5q58 -9 96 -49t38 -116q0 -81 -49.5 -126.5t-142.5 -45.5t-161 54l-8 -44h-82v640h211q103 0 154.5 -43.5t51.5 -121.5q0 -61 -29.5 -97.5t-78.5 -45.5zM181 363h96q54 0 84 26.5t30 76.5q0 96 -117 96h-93v-199zM308 70q112 0 112 105q0 111 -135 111h-104
v-166q56 -50 127 -50z" />
    <glyph glyph-name="C" unicode="C" horiz-adv-x="562" 
d="M329 650q90 0 142.5 -33t52.5 -79q0 -54 -55 -54q-45 0 -50 49q-29 27 -93 27q-81 0 -127 -61t-46 -178q0 -116 48.5 -176.5t135.5 -60.5q93 0 162 56l33 -85q-92 -65 -208 -65q-131 0 -204.5 87.5t-73.5 243.5t73 242.5t210 86.5z" />
    <glyph glyph-name="D" unicode="D" horiz-adv-x="641" 
d="M76 640h197q149 0 235.5 -81.5t86.5 -238.5t-72.5 -243.5t-201.5 -86.5q-88 0 -156 54l-7 -44h-82v640zM308 77q89 0 134.5 64.5t45.5 178.5q0 111 -59 173.5t-161 62.5h-87v-432q57 -47 127 -47z" />
    <glyph glyph-name="E" unicode="E" horiz-adv-x="522" 
d="M182 361h247v-81h-247v-194h294v-86h-400v640h400v-86h-293z" />
    <glyph glyph-name="F" unicode="F" horiz-adv-x="514" 
d="M182 343h243v-83h-244v-260h-105v640h400v-86h-294v-211z" />
    <glyph glyph-name="G" unicode="G" horiz-adv-x="590" 
d="M537 328v-244q-5 -7 -12.5 -15.5t-26 -23.5t-41 -26.5t-59 -20t-77.5 -8.5q-130 0 -202.5 87.5t-72.5 241.5q0 150 71 240.5t213 90.5q89 0 141 -33t52 -80q0 -25 -14.5 -39t-38.5 -14q-48 0 -51 49q-29 27 -92 27q-90 0 -132 -66t-42 -175q0 -112 45 -175.5t134 -63.5
q78 -1 121 46v129h-144v73h228z" />
    <glyph glyph-name="H" unicode="H" horiz-adv-x="661" 
d="M585 0h-107v273h-295v-273h-107v640h107v-277h295v277h107v-640z" />
    <glyph glyph-name="I" unicode="I" horiz-adv-x="259" 
d="M183 0h-107v640h107v-640z" />
    <glyph glyph-name="J" unicode="J" horiz-adv-x="363" 
d="M292 640v-467q0 -94 -48 -138.5t-129 -44.5q-52 0 -88 19v93q27 -16 71 -16q87 0 87 100v362l-89 9v83h196z" />
    <glyph glyph-name="K" unicode="K" horiz-adv-x="555" 
d="M76 640h107v-309l237 309h122l-228 -285l231 -355h-122l-175 272l-65 -80v-192h-107v640z" />
    <glyph glyph-name="L" unicode="L" horiz-adv-x="489" 
d="M469 0h-393v640h107l-1 -554h287v-86z" />
    <glyph glyph-name="M" unicode="M" horiz-adv-x="803" 
d="M620 0v493h-6l-179 -493h-67l-179 493h-6v-493h-107v640h153l170 -484h5l170 484h153v-640h-107z" />
    <glyph glyph-name="N" unicode="N" horiz-adv-x="657" 
d="M452 0l-265 491h-4v-490h-107v639h129l265 -494h4v494h107v-640h-129z" />
    <glyph glyph-name="O" unicode="O" horiz-adv-x="640" 
d="M320 650q132 -1 203 -87t71 -242q0 -157 -71 -244t-203 -87t-203 87t-71 243t71 242.5t203 87.5zM320 560q-167 0 -167 -240q0 -118 42.5 -179.5t124.5 -60.5q81 0 124 61t43 179t-43 179t-124 61z" />
    <glyph glyph-name="P" unicode="P" horiz-adv-x="548" 
d="M76 640h195q114 0 180 -59t66 -156q0 -94 -66.5 -154.5t-179.5 -60.5h-88v-210h-107v640zM183 293h84q145 0 145 132q0 65 -37.5 98.5t-107.5 33.5h-84v-264z" />
    <glyph glyph-name="Q" unicode="Q" horiz-adv-x="640" 
d="M362 -7q7 -37 36.5 -52.5t90.5 -15.5h43v-86h-50q-89 0 -142.5 39.5t-62.5 114.5q-111 13 -171 98.5t-60 228.5q0 156 71 242.5t203 87.5q132 -1 203 -87t71 -242q0 -143 -60 -229t-172 -99zM320 560q-167 0 -167 -240q0 -118 42.5 -179.5t124.5 -60.5q81 0 124 61
t43 179t-43 179t-124 61z" />
    <glyph glyph-name="R" unicode="R" horiz-adv-x="564" 
d="M76 640h190q121 0 186 -56t65 -153q0 -64 -32.5 -111.5t-93.5 -70.5l131 -249h-115l-108 227q-5 0 -15 -0.5t-15 -0.5h-86v-226h-107v640zM183 309h86q70 0 106.5 33t36.5 89q0 59 -36.5 92.5t-106.5 33.5h-86v-248z" />
    <glyph glyph-name="S" unicode="S" horiz-adv-x="526" 
d="M270 650q93 0 145.5 -31.5t52.5 -78.5q0 -52 -52 -52q-49 0 -52 56q-27 25 -95 25q-60 0 -88 -25t-28 -63q0 -45 31.5 -69.5t117.5 -50.5q92 -27 136.5 -72t44.5 -120q0 -82 -55.5 -131t-171.5 -49q-93 0 -152 29t-59 76q0 26 15.5 41.5t41.5 15.5q50 0 56 -55
q32 -25 95 -25t96 25t33 70q0 43 -32 68t-120 51q-96 30 -138 73.5t-42 118.5q0 78 57.5 125.5t162.5 47.5z" />
    <glyph glyph-name="T" unicode="T" horiz-adv-x="531" 
d="M319 554v-554h-107v554h-193v86h493v-86h-193z" />
    <glyph glyph-name="U" unicode="U" horiz-adv-x="650" 
d="M573 0h-81l-17 112q-31 -54 -89.5 -88t-127.5 -34q-186 0 -186 218v432h107v-415q0 -73 28 -109t89 -36q69 0 120 50.5t51 138.5v371h106v-640z" />
    <glyph glyph-name="V" unicode="V" horiz-adv-x="599" 
d="M231 0l-220 640h112l134 -404q34 -104 39 -136h7q6 35 40 136l133 404h112l-220 -640h-137z" />
    <glyph glyph-name="W" unicode="W" horiz-adv-x="889" 
d="M557 0l-86 367q-17 76 -23 124h-7q-8 -64 -23 -124l-85 -367h-141l-174 640h112l110 -410q19 -70 26 -130h7l112 540h119l113 -540h7q8 67 25 130l111 410h111l-173 -640h-141z" />
    <glyph glyph-name="X" unicode="X" horiz-adv-x="552" 
d="M536 0h-112l-100 168q-39 64 -45 88h-5q-6 -24 -45 -88l-101 -168h-112l193 318l-190 322h113l97 -167q38 -66 46 -91h4q10 29 45 91l97 167h112l-190 -322z" />
    <glyph glyph-name="Y" unicode="Y" horiz-adv-x="546" 
d="M326 0h-106v231l-214 409h113l115 -234q29 -59 37 -86h4q7 28 36 86l116 234h113l-214 -409v-231z" />
    <glyph glyph-name="Z" unicode="Z" horiz-adv-x="549" 
d="M178 91v-5h325v-86h-458v80l326 469v5h-326v86h458v-80z" />
    <glyph glyph-name="bracketleft" unicode="[" horiz-adv-x="310" 
d="M281 635h-114v-770h114v-85h-213v940h213v-85z" />
    <glyph glyph-name="backslash" unicode="\" horiz-adv-x="489" 
d="M467 -220h-92l-352 940h92z" />
    <glyph glyph-name="bracketright" unicode="]" horiz-adv-x="310" 
d="M29 -220v85h114v770h-114v85h212v-940h-212z" />
    <glyph glyph-name="asciicircum" unicode="^" horiz-adv-x="535" 
d="M390 317l-78 157q-14 29 -24.5 54t-13.5 35l-4 10h-3q-9 -33 -42 -99l-80 -157h-102l175 340h99l175 -340h-102z" />
    <glyph glyph-name="underscore" unicode="_" horiz-adv-x="396" 
d="M396 -124h-396v71h396v-71z" />
    <glyph glyph-name="a" unicode="a" horiz-adv-x="503" 
d="M460 67q11 0 23 2v-69q-26 -6 -57 -6q-75 0 -90 77q-42 -80 -146 -80q-67 0 -109.5 36.5t-42.5 93.5q0 72 56.5 110.5t152.5 38.5h79v36q0 54 -26.5 83.5t-77.5 29.5q-72 0 -138 -51l-42 66q85 66 193 66q93 0 142 -50.5t49 -138.5v-187q0 -57 34 -57zM218 60
q54 0 81 32.5t27 88.5v30h-66q-123 0 -123 -82q0 -30 22.5 -49.5t58.5 -19.5z" />
    <glyph glyph-name="b" unicode="b" horiz-adv-x="562" 
d="M323 500q97 0 147 -71t50 -184q0 -114 -49.5 -184.5t-147.5 -70.5q-110 0 -161 110l-14 -100h-82v720h104v-317q48 97 153 97zM293 71q58 0 90.5 47t32.5 127t-32.5 127t-90.5 47q-59 0 -93.5 -46.5t-34.5 -127.5q0 -82 34.5 -128t93.5 -46z" />
    <glyph glyph-name="c" unicode="c" horiz-adv-x="475" 
d="M272 500q66 0 111 -27t45 -68q0 -23 -13.5 -36t-37.5 -13q-45 0 -45 44q-13 22 -60 22q-63 0 -95 -48t-32 -127q0 -78 35.5 -127.5t105.5 -49.5q73 0 134 46l27 -71q-70 -55 -177 -55q-109 0 -168.5 69.5t-59.5 186.5t60 185.5t170 68.5z" />
    <glyph glyph-name="d" unicode="d" horiz-adv-x="562" 
d="M496 0h-82l-15 98q-47 -108 -158 -108q-97 0 -148 70.5t-51 183.5q0 112 51 184t144 72q105 0 156 -96v316h103v-720zM270 71q61 0 94 47t33 127t-33.5 127t-94.5 47q-58 0 -90.5 -47t-32.5 -128t33.5 -127t90.5 -46z" />
    <glyph glyph-name="e" unicode="e" horiz-adv-x="505" 
d="M456 224h-312q6 -76 41 -115t97 -39q82 0 140 46l30 -71q-74 -55 -184 -55q-107 0 -166.5 68t-59.5 190q0 115 60 183.5t161 68.5q99 0 149.5 -57t50.5 -151q0 -30 -7 -68zM144 283h220q2 10 2 24q0 51 -26.5 83t-77.5 32q-50 0 -81.5 -37t-36.5 -102z" />
    <glyph glyph-name="f" unicode="f" horiz-adv-x="362" 
d="M292 648q-88 0 -88 -109v-49h145v-72h-145v-418h-103v418h-79v72h79v47q0 97 45 145t127 48q37 0 76 -7v-83q-29 8 -57 8z" />
    <glyph glyph-name="g" unicode="g" horiz-adv-x="506" 
d="M215 74h62q221 0 221 -141q0 -75 -62 -119t-183 -44q-238 0 -238 135q0 52 33.5 79.5t68.5 34.5v4q-21 6 -39 25.5t-18 52.5q0 65 62 97q-73 45 -73 137q0 78 53.5 121.5t145.5 43.5q61 0 111 -24q40 14 72 73l62 -37q-31 -52 -82 -74q36 -42 36 -103q0 -80 -54 -124
t-145 -44q-38 0 -76 10q-39 -18 -39 -56q0 -23 18 -35t64 -12zM248 435q-47 0 -74.5 -26t-27.5 -74q0 -50 27.5 -76t74.5 -26q47 -1 74 25t27 77q0 48 -27.5 73.5t-73.5 26.5zM256 -156q145 0 145 84q0 72 -128 72h-58q-45 0 -74 -19.5t-29 -58.5q0 -78 144 -78z" />
    <glyph glyph-name="h" unicode="h" horiz-adv-x="546" 
d="M328 500q156 0 156 -199v-301h-103v273q0 141 -90 141q-51 0 -86 -49.5t-35 -120.5v-244h-104v639l-55 9v72h159v-323q52 103 158 103z" />
    <glyph glyph-name="i" unicode="i" horiz-adv-x="255" 
d="M129 567q-33 0 -51 17t-18 46t18 46.5t51 17.5q32 0 50 -17.5t18 -46.5t-18 -46t-50 -17zM188 0h-104v409l-55 9v72h159v-490z" />
    <glyph glyph-name="j" unicode="j" horiz-adv-x="259" 
d="M133 567q-33 0 -51 17t-18 46t18 46.5t51 17.5q32 0 50 -17.5t18 -46.5t-18 -46t-50 -17zM193 490v-533q0 -95 -42.5 -141t-117.5 -46q-47 0 -67 10v82q16 -4 38 -4q46 0 65.5 26.5t19.5 86.5v438l-61 9v72h165z" />
    <glyph glyph-name="k" unicode="k" horiz-adv-x="498" 
d="M170 162v-162h-104v632l-55 9v79h159v-439l185 209h118l-183 -198l209 -292h-116l-157 223z" />
    <glyph glyph-name="l" unicode="l" horiz-adv-x="269" 
d="M263 87v-80q-34 -12 -84 -12q-114 0 -114 129v596h103v-572q0 -37 12 -51t38 -14q25 0 45 4z" />
    <glyph glyph-name="m" unicode="m" horiz-adv-x="847" 
d="M637 500q71 0 109.5 -50.5t38.5 -148.5v-301h-104v279q0 135 -81 135q-48 0 -81 -49t-33 -118v-247h-104v279q0 135 -81 135q-48 0 -81 -49t-33 -118v-247h-103v410l-56 8v72h145l9 -99q50 109 156 109q110 0 139 -118q50 118 160 118z" />
    <glyph glyph-name="n" unicode="n" horiz-adv-x="564" 
d="M347 500q156 0 156 -199v-301h-104v273q0 141 -89 141q-52 0 -87 -49.5t-35 -120.5v-244h-104v410l-55 8v72h144l10 -103q51 113 164 113z" />
    <glyph glyph-name="o" unicode="o" horiz-adv-x="534" 
d="M267 500q109 0 167.5 -72t58.5 -183t-58.5 -183t-167.5 -72t-167.5 72t-58.5 183t58.5 183t167.5 72zM267 419q-59 0 -90.5 -47t-31.5 -127t31.5 -127t90.5 -47t90.5 47t31.5 127t-31.5 127t-90.5 47z" />
    <glyph glyph-name="p" unicode="p" horiz-adv-x="581" 
d="M343 500q94 0 144.5 -70.5t50.5 -182.5q0 -111 -48 -184t-149 -73q-104 0 -153 93v-303h-104v629l-55 9v72h146l9 -94q49 104 159 104zM311 71q59 0 91.5 46.5t32.5 127.5q0 80 -32.5 127t-90.5 47q-60 0 -94 -46.5t-34 -127.5q0 -82 33.5 -128t93.5 -46z" />
    <glyph glyph-name="q" unicode="q" horiz-adv-x="563" 
d="M278 500q46 0 84 -7.5t66.5 -22.5t40.5 -23.5t30 -23.5v-643h-104v315q-39 -105 -159 -105q-88 0 -141 66t-53 187t63.5 189t172.5 68zM280 419q-64 0 -99 -44.5t-35 -128.5q0 -85 34.5 -130t91.5 -45q54 0 88.5 44.5t34.5 123.5v140q-43 40 -115 40z" />
    <glyph glyph-name="r" unicode="r" horiz-adv-x="386" 
d="M338 498q22 0 31 -3v-102q-16 4 -39 4q-64 0 -102.5 -56.5t-38.5 -123.5v-217h-104v409l-57 9v72h144l14 -134q17 62 56 102t96 40z" />
    <glyph glyph-name="s" unicode="s" horiz-adv-x="460" 
d="M235 500q77 0 125 -25t48 -63q0 -44 -52 -44q-49 0 -49 48q-26 13 -70 13q-93 0 -93 -65q0 -33 24.5 -50t87.5 -33q87 -22 126 -56t39 -96q0 -139 -200 -139q-78 0 -128.5 25t-50.5 70q0 23 13.5 36t37.5 13q25 0 39.5 -15t12.5 -41q31 -17 80 -17q53 0 75.5 16t22.5 49
t-27 52.5t-106 38.5q-78 19 -110.5 53t-32.5 92q0 62 46 100t142 38z" />
    <glyph glyph-name="t" unicode="t" horiz-adv-x="355" 
d="M331 490v-72h-124v-268q0 -37 15.5 -51.5t46.5 -14.5q36 0 62 6v-81q-41 -13 -97 -13q-68 0 -99.5 31.5t-31.5 105.5v285h-86v72h86v121h104v-121h124z" />
    <glyph glyph-name="u" unicode="u" horiz-adv-x="546" 
d="M480 0h-87l-11 107q-51 -117 -167 -117q-153 0 -153 185v315h103v-297q0 -62 21.5 -89.5t65.5 -27.5q55 0 89.5 47.5t34.5 126.5v240h104v-490z" />
    <glyph glyph-name="v" unicode="v" horiz-adv-x="512" 
d="M198 0l-184 490h106l104 -296q30 -82 30 -104h4q0 20 30 104l103 296h107l-184 -490h-116z" />
    <glyph glyph-name="w" unicode="w" horiz-adv-x="771" 
d="M484 0l-97 342h-3l-97 -342h-118l-151 490h107l79 -288q24 -90 27 -110h2q1 4 29 110l76 288h95l76 -288l13 -47.5l11 -40.5t5 -22h2q1 9 27 110l79 288h107l-151 -490h-118z" />
    <glyph glyph-name="x" unicode="x" horiz-adv-x="518" 
d="M504 0h-112l-109 159q-17 27 -22 40h-4q-4 -12 -21 -39l-110 -160h-112l169 251l-161 239h112l104 -151q15 -22 19 -38h4q4 16 19 38l104 151h111l-161 -239z" />
    <glyph glyph-name="y" unicode="y" horiz-adv-x="505" 
d="M492 490l-222 -589q-25 -68 -61.5 -99.5t-100.5 -31.5q-51 0 -73 11v77q30 -9 56 -9q32 0 50 12.5t30 44.5l34 87l-192 497h106l105 -288q21 -60 28 -101h4l130 389h106z" />
    <glyph glyph-name="z" unicode="z" horiz-adv-x="472" 
d="M434 0h-397v70l262 339h-254v81h382v-70l-263 -339h270v-81z" />
    <glyph glyph-name="braceleft" unicode="{" horiz-adv-x="388" 
d="M266 725q-153 0 -153 -145v-195q0 -97 -76 -97h-21v-80l21 -1q76 0 76 -96v-196q0 -144 153 -144q24 0 49.5 4.5t39.5 8.5l14 4l-15 78q-30 -11 -70 -11q-42 0 -61 19t-19 65v190q0 55 -17.5 81.5t-54.5 35.5v4q37 8 54.5 34.5t17.5 81.5v190q0 46 19 65t62 19
q17 0 34 -2.5t26 -5.5l9 -2l15 77q-50 18 -103 18z" />
    <glyph glyph-name="bar" unicode="|" horiz-adv-x="228" 
d="M160 720l-1 -940h-91v940h92z" />
    <glyph glyph-name="braceright" unicode="}" horiz-adv-x="388" 
d="M122 725q-24 0 -50 -4.5t-40 -8.5l-14 -5l16 -77q31 10 69 10q43 0 61.5 -19t18.5 -65v-190q0 -55 17.5 -81.5t54.5 -34.5v-4q-37 -9 -54.5 -35.5t-17.5 -81.5v-190q0 -46 -18.5 -65t-60.5 -19q-18 0 -35.5 2.5t-26.5 5.5l-8 3l-16 -78q50 -17 104 -17q153 0 153 144v196
q1 52 20 74t57 22l20 1v80h-20q-76 0 -77 97v195q0 145 -153 145z" />
    <glyph glyph-name="exclamdown" unicode="&#xa1;" horiz-adv-x="240" 
d="M120 387q-27 0 -44.5 17t-17.5 42t17.5 42.5t44.5 17.5t44 -17.5t17 -42.5q0 -24 -17.5 -41.5t-43.5 -17.5zM78 314h84l20 -483h-124z" />
    <glyph glyph-name="cent" unicode="&#xa2;" horiz-adv-x="469" 
d="M395 110l34 -71q-58 -45 -131 -48v-114h-68v117q-92 14 -138.5 81t-46.5 172q1 103 47 169t138 80v116h68v-113q72 -3 124 -39l-34 -72q-50 29 -109 29q-133 0 -133 -171q0 -173 134 -173q67 0 115 37z" />
    <glyph glyph-name="sterling" unicode="&#xa3;" horiz-adv-x="554" 
d="M307 654q-95 0 -151 -49t-56 -139q0 -48 20 -124h-68v-66h84q1 -4 2 -11t3 -28.5t0 -37.5q-4 -86 -85 -116v-83q59 23 135 24q46 0 104 -14.5t95 -14.5q34 0 65 13t45 26l14 13l-32 66q-42 -35 -90 -35q-36 0 -73 12.5t-66 12.5q-23 0 -43 -4.5t-29 -8.5l-9 -4v4
q2 1 5.5 3t13 10.5t16.5 19.5t13.5 30.5t7.5 42.5q2 22 1.5 40t-2.5 29l-2 11h149v66h-160q-17 66 -17 109q0 53 28 82.5t77 29.5q27 0 48.5 -9t32 -22.5t17.5 -26.5t8 -22l2 -9l78 39q-1 6 -3 15.5t-14 33.5t-30 43t-53.5 34t-80.5 15z" />
    <glyph glyph-name="yen" unicode="&#xa5;" horiz-adv-x="618" 
d="M542 374v-58h-133l-34 -65h167v-58h-177v-193h-109v193h-182v58h173l-35 65h-138v58h107l-142 266h113l104 -205l52 -104h5l52 104l104 205h114l-143 -266h102z" />
    <glyph glyph-name="brokenbar" unicode="&#xa6;" horiz-adv-x="229" 
d="M68 720h92l-1 -400h-91v400zM159 -220h-91v401h91v-401z" />
    <glyph glyph-name="section" unicode="&#xa7;" horiz-adv-x="523" 
d="M479 256q0 -63 -35 -104q31 -42 31 -100q0 -83 -56 -136.5t-162 -54.5q-120 0 -212 68l38 78q75 -56 171 -56q56 0 84.5 26.5t28.5 69.5q0 24 -10 43.5t-32.5 34t-38.5 23t-50 21.5t-45 18q-60 24 -94.5 59t-34.5 96q0 63 39 103q-40 40 -40 101q0 78 58 126t156 48
q54 0 103 -16t70 -32l22 -16l-50 -71q-64 46 -137 46q-58 0 -86 -24t-28 -60q0 -19 10 -34t30 -27t38.5 -20t49 -20t48.5 -20q64 -29 99 -67t35 -103zM243 261l33 -13.5t36 -15.5t31 -15.5t32 -18.5q13 20 13 51q0 37 -24 60.5t-69 42.5l-55.5 22.5t-64.5 29.5
q-23 -20 -23 -53q0 -31 23.5 -51t67.5 -39z" />
    <glyph glyph-name="copyright" unicode="&#xa9;" horiz-adv-x="753" 
d="M376 644q137 0 232.5 -93.5t95.5 -234.5t-95.5 -234.5t-232.5 -93.5t-232 93t-95 235t95 235t232 93zM377 603q-119 0 -202.5 -81.5t-83.5 -205.5q0 -125 83 -206t203 -81t203 81t83 206q0 124 -83.5 205.5t-202.5 81.5zM388 518q65 0 117 -39l-27 -56q-46 31 -86 31
q-103 0 -105 -138q2 -137 105 -137q40 0 88 32l26 -56q-55 -40 -118 -40q-88 0 -133.5 54.5t-46.5 148.5q2 92 47 146t133 54z" />
    <glyph glyph-name="ordfeminine" unicode="&#xaa;" horiz-adv-x="348" 
d="M302 386q4 0 8.5 0.5t5.5 0.5v-46q-12 -4 -39 -4q-50 0 -59 47q-31 -48 -92 -48q-43 0 -69 22t-26 59q0 45 35.5 69t96.5 24h47v20q0 66 -63 66q-45 0 -84 -31l-30 45q54 41 124 41q60 0 92.5 -32t32.5 -87v-111q0 -35 20 -35zM148 382q62 0 62 71v18h-37q-72 0 -72 -48
q0 -18 13 -29.5t34 -11.5z" />
    <glyph glyph-name="guillemotleft" unicode="&#xab;" horiz-adv-x="581" 
d="M123 270v-4l186 -140l-50 -61l-224 182v42l224 182l50 -61zM348 270v-4l185 -140l-50 -61l-223 182v42l223 182l50 -61z" />
    <glyph glyph-name="logicalnot" unicode="&#xac;" horiz-adv-x="563" 
d="M421 89v145h-355v74h429v-219h-74z" />
    <glyph glyph-name="registered" unicode="&#xae;" horiz-adv-x="753" 
d="M376 643q137 0 232.5 -93.5t95.5 -234.5t-95.5 -234t-232.5 -93q-138 0 -232.5 92.5t-94.5 234.5t95 235t232 93zM377 29q120 0 203 81t83 205t-83.5 206t-202.5 82t-202.5 -82t-83.5 -206t83 -205t203 -81zM521 386q0 -80 -73 -110l77 -148h-67l-67 136h-68v-136h-66
v383h124q63 0 101.5 -35.5t38.5 -89.5zM323 319h59q75 0 75 66q0 31 -20 50.5t-56 19.5h-58v-136z" />
    <glyph glyph-name="degree" unicode="&#xb0;" horiz-adv-x="277" 
d="M30 529q0 47 30.5 77t77.5 30t78 -30t31 -77t-31 -76.5t-78 -29.5t-77.5 29.5t-30.5 76.5zM92 529q0 -22 13 -36t34 -14q20 0 33 14t13 36t-13 36t-33 14q-21 0 -34 -14t-13 -36z" />
    <glyph glyph-name="acute" unicode="&#xb4;" horiz-adv-x="395" 
d="M336 720l-107 -149h-94l76 149h125z" />
    <glyph glyph-name="paragraph" unicode="&#xb6;" horiz-adv-x="554" 
d="M323 222h-38q-112 0 -182.5 56t-71.5 152q1 97 71.5 153.5t182.5 56.5h38v-418zM477 0h-102v640h102v-640z" />
    <glyph glyph-name="periodcentered" unicode="&#xb7;" horiz-adv-x="261" 
d="M59 291q0 31 20 51.5t52 20.5q31 0 50.5 -20.5t19.5 -51.5q0 -30 -19.5 -50.5t-50.5 -20.5q-32 0 -52 20.5t-20 50.5z" />
    <glyph glyph-name="ordmasculine" unicode="&#xba;" horiz-adv-x="373" 
d="M186 650q69 0 108 -41t39 -116q0 -74 -39.5 -115.5t-107.5 -41.5t-107 41.5t-39 115.5q0 76 39 116.5t107 40.5zM186 592q-71 0 -71 -98q0 -101 71 -101q70 0 70 101q0 98 -70 98z" />
    <glyph glyph-name="guillemotright" unicode="&#xbb;" horiz-adv-x="581" 
d="M321 247l-224 -182l-50 61l186 140v4l-186 140l50 61l224 -182v-42zM545 247l-223 -182l-50 61l185 140v4l-185 140l50 61l223 -182v-42z" />
    <glyph glyph-name="questiondown" unicode="&#xbf;" horiz-adv-x="417" 
d="M267 381q-29 0 -46.5 17t-17.5 44q0 26 17.5 44t46.5 18t46.5 -18t17.5 -44q0 -27 -17.5 -44t-46.5 -17zM212 -172q-86 0 -132 44t-46 120q0 43 20.5 79.5t41.5 55.5t65 52q38 28 52 48t14 58v23h84v-38q0 -43 -21.5 -75t-70.5 -69q-29 -21 -44.5 -34.5t-31 -39.5
t-15.5 -55q0 -87 103 -87q35 0 69 9.5t50 18.5l16 10l14 -74q-6 -5 -18.5 -12.5t-56 -20.5t-93.5 -13z" />
    <glyph glyph-name="Aacute" unicode="&#xc1;" horiz-adv-x="589" 
d="M248 698l76 150h125l-107 -150h-94zM171 170l-53 -170h-107l206 640h155l206 -640h-107l-53 170h-247zM303 554h-17l-91 -298h200z" />
    <glyph glyph-name="Eacute" unicode="&#xc9;" horiz-adv-x="522" 
d="M231 698l76 150h125l-107 -150h-94zM182 361h247v-81h-247v-194h294v-86h-400v640h400v-86h-293z" />
    <glyph glyph-name="Iacute" unicode="&#xcd;" horiz-adv-x="261" 
d="M284 848l-108 -150h-93l76 150h125zM183 0h-107v640h107v-640z" />
    <glyph glyph-name="Ntilde" unicode="&#xd1;" horiz-adv-x="656" 
d="M454 829h64q2 -20 2 -33q0 -41 -24 -69.5t-67 -27.5q-37 1 -82 27t-64 26q-18 0 -29 -14t-11 -39h-64q-2 16 -2 31q0 40 23.5 68.5t67.5 28.5q38 0 84.5 -26.5t64.5 -26.5q37 0 37 55zM452 0l-265 491h-4v-490h-107v639h129l265 -494h4v494h107v-640h-129z" />
    <glyph glyph-name="Oacute" unicode="&#xd3;" horiz-adv-x="645" 
d="M487 848l-107 -149h-94l76 149h125zM320 650q132 -1 203 -87t71 -242q0 -157 -71 -244t-203 -87t-203 87t-71 243t71 242.5t203 87.5zM320 560q-167 0 -167 -240q0 -118 42.5 -179.5t124.5 -60.5q81 0 124 61t43 179t-43 179t-124 61z" />
    <glyph glyph-name="multiply" unicode="&#xd7;" horiz-adv-x="463" 
d="M284 302l122 -123l-54 -53l-121 122l-123 -123l-52 52l122 123l-122 122l54 53l122 -121l122 122l52 -52z" />
    <glyph glyph-name="Uacute" unicode="&#xda;" horiz-adv-x="650" 
d="M471 847l-107 -149h-94l76 149h125zM573 0h-81l-17 112q-31 -54 -89.5 -88t-127.5 -34q-186 0 -186 218v432h107v-415q0 -73 28 -109t89 -36q69 0 120 50.5t51 138.5v371h106v-640z" />
    <glyph glyph-name="aacute" unicode="&#xe1;" horiz-adv-x="503" 
d="M390 697l-107 -149h-93l75 149h125zM460 67q11 0 23 2v-69q-26 -6 -57 -6q-75 0 -90 77q-42 -80 -146 -80q-67 0 -109.5 36.5t-42.5 93.5q0 72 56.5 110.5t152.5 38.5h79v36q0 54 -26.5 83.5t-77.5 29.5q-72 0 -138 -51l-42 66q85 66 193 66q93 0 142 -50.5t49 -138.5
v-187q0 -57 34 -57zM218 60q54 0 81 32.5t27 88.5v30h-66q-123 0 -123 -82q0 -30 22.5 -49.5t58.5 -19.5z" />
    <glyph glyph-name="eacute" unicode="&#xe9;" horiz-adv-x="505" 
d="M417 697l-107 -149h-94l76 149h125zM456 224h-312q6 -76 41 -115t97 -39q82 0 140 46l30 -71q-74 -55 -184 -55q-107 0 -166.5 68t-59.5 190q0 115 60 183.5t161 68.5q99 0 149.5 -57t50.5 -151q0 -30 -7 -68zM144 283h220q2 10 2 24q0 51 -26.5 83t-77.5 32
q-50 0 -81.5 -37t-36.5 -102z" />
    <glyph glyph-name="iacute" unicode="&#xed;" horiz-adv-x="255" 
d="M284 697l-107 -149h-94l76 149h125zM189 0h-104v402l-55 10v78h159v-490z" />
    <glyph glyph-name="ntilde" unicode="&#xf1;" horiz-adv-x="564" 
d="M397 694h63q2 -10 2 -33q0 -41 -24 -69.5t-67 -27.5q-37 1 -82 27t-64 26q-18 0 -29 -14t-11 -39h-64q-2 16 -2 31q0 40 23.5 68.5t67.5 28.5q38 0 84.5 -26.5t64.5 -26.5q38 0 38 55zM347 500q156 0 156 -199v-301h-104v273q0 141 -89 141q-52 0 -87 -49.5t-35 -120.5
v-244h-104v410l-55 8v72h144l10 -103q51 113 164 113z" />
    <glyph glyph-name="oacute" unicode="&#xf3;" horiz-adv-x="534" 
d="M420 697l-107 -149h-94l76 149h125zM267 500q109 0 167.5 -72t58.5 -183t-58.5 -183t-167.5 -72t-167.5 72t-58.5 183t58.5 183t167.5 72zM267 419q-59 0 -90.5 -47t-31.5 -127t31.5 -127t90.5 -47t90.5 47t31.5 127t-31.5 127t-90.5 47z" />
    <glyph glyph-name="divide" unicode="&#xf7;" horiz-adv-x="542" 
d="M272 505q25 0 41.5 -16.5t16.5 -40.5q0 -25 -16.5 -41.5t-41.5 -16.5t-41 16.5t-16 41.5q0 24 16 40.5t41 16.5zM60 238v74h422v-74h-422zM272 161q25 0 41.5 -16.5t16.5 -40.5t-16.5 -41t-41.5 -17t-41 17t-16 41t16 40.5t41 16.5z" />
    <glyph glyph-name="uacute" unicode="&#xfa;" horiz-adv-x="546" 
d="M421 697l-107 -149h-93l75 149h125zM480 0h-87l-11 107q-51 -117 -167 -117q-153 0 -153 185v315h103v-297q0 -62 21.5 -89.5t65.5 -27.5q55 0 89.5 47.5t34.5 126.5v240h104v-490z" />
    <glyph glyph-name="dotlessi" unicode="&#x131;" horiz-adv-x="255" 
d="M189 0h-104v402l-55 10v78h159v-490z" />
    <glyph glyph-name="IJ" unicode="&#x132;" horiz-adv-x="627" 
d="M183 0h-107v640h107v-640zM550 640v-467q0 -94 -47.5 -138.5t-128.5 -44.5q-52 0 -88 19v93q27 -16 71 -16q87 0 87 100v362l-89 9v83h195z" />
    <glyph glyph-name="ij" unicode="&#x133;" horiz-adv-x="494" 
d="M129 567q-33 0 -51 17t-18 46t18 46.5t51 17.5q32 0 50 -17.5t18 -46.5t-18 -46t-50 -17zM280 567q-33 0 -50.5 17t-17.5 46t17.5 46.5t50.5 17.5t51 -17.5t18 -46.5t-18 -46t-51 -17zM340 490v-533q0 -95 -42.5 -141t-117.5 -46q-47 0 -67 10v82q16 -4 38 -4
q46 0 65.5 26.5t19.5 86.5v438l-48 7v-416h-104v409l-55 9v72h311z" />
    <glyph glyph-name="florin" unicode="&#x192;" horiz-adv-x="525" 
d="M402 572q-38 0 -60 -19t-31 -63l-21 -110h154l-15 -81h-154l-66 -341q-17 -91 -56.5 -135t-126.5 -44q-31 0 -59 7.5t-41 15.5l-12 7l30 72q28 -19 75 -19q72 0 87 79l70 358h-112l1 81h127l19 101q18 90 57 132t125 42q31 0 61 -8t44 -16l15 -8l-24 -74q-5 3 -13.5 7
t-31 10t-42.5 6z" />
    <glyph glyph-name="tilde" unicode="&#x2dc;" 
d="M444 704h64q2 -10 2 -33q0 -41 -24 -69.5t-67 -27.5q-37 1 -82 27t-64 26q-18 0 -29 -14t-11 -39h-64q-2 16 -2 31q0 40 23.5 68.5t67.5 28.5q38 0 84.5 -26.5t64.5 -26.5q37 0 37 55z" />
    <glyph glyph-name="endash" unicode="&#x2013;" horiz-adv-x="567" 
d="M506 229h-445v82h445v-82z" />
    <glyph glyph-name="emdash" unicode="&#x2014;" horiz-adv-x="999" 
d="M944 247h-889v85h889v-85z" />
    <glyph glyph-name="quoteleft" unicode="&#x2018;" horiz-adv-x="249" 
d="M133 477q-74 0 -74 97q1 70 40 109t107 42v-47q-29 -2 -52.5 -18t-25.5 -37l1 -9q4 3 15 3q26 0 43 -19.5t17 -49.5q0 -34 -19.5 -52.5t-51.5 -18.5z" />
    <glyph glyph-name="quoteright" unicode="&#x2019;" horiz-adv-x="243" 
d="M116 725q74 0 74 -97q-1 -70 -39.5 -109t-107.5 -42v47q30 2 53 18t25 37v9q-5 -3 -16 -3q-26 0 -43 19.5t-17 49.5q0 34 19.5 52.5t51.5 18.5z" />
    <glyph glyph-name="quotesinglbase" unicode="&#x201a;" horiz-adv-x="503" 
d="M122 134q74 0 74 -98q-1 -70 -39.5 -108.5t-107.5 -42.5v47q30 3 53 19t25 37v8q-5 -3 -16 -3q-25 0 -42.5 20t-17.5 49q0 34 19.5 53t51.5 19z" />
    <glyph glyph-name="quotedblleft" unicode="&#x201c;" horiz-adv-x="433" 
d="M138 477q-74 0 -74 97q1 70 39.5 109t107.5 42v-47q-30 -2 -53 -18t-25 -37v-9q5 3 16 3q26 0 43 -19.5t17 -49.5q0 -34 -19.5 -52.5t-51.5 -18.5zM323 477q-74 0 -74 97q1 70 39.5 109t107.5 42v-47q-30 -2 -53 -18t-25 -37v-9q5 3 16 3q26 0 42.5 -19.5t16.5 -49.5
q0 -34 -19 -52.5t-51 -18.5z" />
    <glyph glyph-name="quotedblright" unicode="&#x201d;" horiz-adv-x="434" 
d="M116 725q74 0 74 -97q-1 -70 -39.5 -109t-107.5 -42v47q30 2 53 18t25 37v9q-5 -3 -16 -3q-26 0 -43 19.5t-17 49.5q0 34 19.5 52.5t51.5 18.5zM301 725q74 0 74 -97q-1 -70 -39.5 -109t-107.5 -42v47q29 2 52.5 18t25.5 37l-1 9q-4 -3 -15 -3q-26 0 -43 19.5t-17 49.5
q0 34 19.5 52.5t51.5 18.5z" />
    <glyph glyph-name="quotedblbase" unicode="&#x201e;" horiz-adv-x="445" 
d="M122 134q74 0 74 -98q-1 -70 -39.5 -108.5t-107.5 -42.5v47q30 3 53 19t25 37v8q-5 -3 -16 -3q-25 0 -42.5 20t-17.5 49q0 34 19.5 53t51.5 19zM307 134q74 0 74 -98q-1 -70 -39.5 -108.5t-107.5 -42.5v47q30 3 53 19t25 37l-1 8q-4 -3 -15 -3q-26 0 -43 20t-17 49
q0 34 19.5 53t51.5 19z" />
    <glyph glyph-name="bullet" unicode="&#x2022;" horiz-adv-x="374" 
d="M80 289q0 45 30.5 76t76.5 31q45 0 76.5 -31t31.5 -76t-31.5 -76.5t-76.5 -31.5t-76 31.5t-31 76.5z" />
    <glyph glyph-name="ellipsis" unicode="&#x2026;" horiz-adv-x="809" 
d="M52 63q0 31 19.5 51t51.5 20q31 0 51 -20.5t20 -50.5t-20 -50.5t-51 -20.5q-32 0 -51.5 20t-19.5 51zM334 63q0 31 19.5 51t51.5 20q31 0 51 -20.5t20 -50.5t-20 -50.5t-51 -20.5q-32 0 -51.5 20t-19.5 51zM615 63q0 30 20 50.5t51 20.5q32 0 51.5 -20t19.5 -51
t-19.5 -51t-51.5 -20q-31 0 -51 20.5t-20 50.5z" />
    <glyph glyph-name="perthousand" unicode="&#x2030;" horiz-adv-x="1252" 
d="M197 641q73 0 116.5 -49t43.5 -135q0 -84 -43.5 -133.5t-116.5 -49.5t-116.5 49.5t-43.5 134.5t43.5 134t116.5 49zM241 0l323 640h84l-322 -640h-85zM197 581q-40 0 -64 -31.5t-24 -91.5q0 -61 24 -92.5t64 -31.5t64 31.5t24 92.5q0 60 -24 91.5t-64 31.5zM680 360
q73 0 116.5 -49.5t43.5 -134.5t-43.5 -134.5t-116.5 -49.5t-116.5 49.5t-43.5 134.5t43.5 134.5t116.5 49.5zM1055 360q73 0 116.5 -49.5t43.5 -134.5t-43.5 -134.5t-116.5 -49.5t-116.5 49.5t-43.5 134.5t43.5 134.5t116.5 49.5zM680 299q-40 0 -64 -31.5t-24 -91.5
t24 -91.5t64 -31.5q41 0 64.5 31t23.5 92q0 60 -24 91.5t-64 31.5zM1055 299q-40 0 -64 -31.5t-24 -91.5t24 -91.5t64 -31.5q41 0 64.5 31t23.5 92q0 60 -24 91.5t-64 31.5z" />
    <glyph glyph-name="guilsinglleft" unicode="&#x2039;" horiz-adv-x="357" 
d="M259 471l50 -61l-186 -140v-4l186 -140l-50 -61l-224 182v42z" />
    <glyph glyph-name="guilsinglright" unicode="&#x203a;" horiz-adv-x="357" 
d="M321 247l-223 -182l-50 61l185 140v4l-185 140l50 61l223 -182v-42z" />
    <glyph glyph-name="fraction" unicode="&#x2044;" horiz-adv-x="434" 
d="M7 0l322 640h98l-323 -640h-97z" />
    <glyph glyph-name="Euro" unicode="&#x20ac;" horiz-adv-x="658" 
d="M395 655q153 -1 215 -121l-74 -57q-40 81 -137 81q-65 0 -107 -40.5t-52 -118.5h226l-10 -59h-411v59h86q14 117 85 186t179 70zM440 227h-199q11 -68 53.5 -107t103.5 -39q98 0 146 78l67 -59q-68 -115 -213 -115q-103 0 -177 67t-90 175h-86v58h405z" />
    <glyph glyph-name="minus" unicode="&#x2212;" horiz-adv-x="555" 
d="M66 234v74h423v-74h-423z" />
    <glyph glyph-name="infinity" unicode="&#x221e;" horiz-adv-x="762" 
d="M51 326q0 72 43.5 115.5t115.5 43.5q54 0 94 -26.5t80 -82.5q50 57 91 83.5t94 26.5q67 0 104 -42.5t37 -105.5q0 -74 -41.5 -118t-105.5 -44q-95 0 -180 99q-84 -101 -176 -101q-72 0 -114 41t-42 111zM336 326q-59 90 -124 90q-40 0 -62.5 -25.5t-22.5 -62.5
q0 -38 22 -62t61 -24q67 0 126 84zM428 328q64 -85 130 -85q34 0 55 26t21 62q0 39 -20 62t-57 23q-35 0 -62.5 -21.5t-66.5 -66.5z" />
    <glyph glyph-name="uniF6C9" unicode="&#xf6c9;" 
d="M447 848l-108 -150h-93l76 150h125z" />
    <glyph glyph-name="uniF8FF" unicode="&#xf8ff;" horiz-adv-x="1117" 
d="M935 179l87 -48l-99 1l80 -58l-98 13l73 -67l-96 25l64 -76l-93 37l54 -83l-86 48l43 -89l-81 59l32 -95l-72 69l19 -98l-63 77l7 -98l-52 84l-6 -100l-42 91l-17 -98l-31 95l-30 -95l-17 98l-42 -91l-6 100l-52 -84l7 98l-63 -77l19 98l-72 -69l32 95l-81 -59l43 89
l-86 -48l54 83l-93 -37l64 76l-96 -25l73 67l-98 -13l80 58l-99 -1l87 48l-98 11l92 36l-96 24l96 24l-92 36l98 12l-87 47h99l-80 58l98 -14l-73 68l96 -25l-64 76l93 -38l-54 84l86 -49l-43 90l81 -59l-32 94l72 -68l-19 97l63 -77l-7 99l52 -84l6 99l42 -90l17 98l30 -95
l31 95l17 -98l42 90l6 -99l52 84l-7 -99l63 77l-19 -97l72 68l-32 -94l81 59l-43 -90l86 49l-54 -84l93 38l-64 -76l96 25l-73 -68l98 14l-80 -58h99l-87 -47l98 -12l-92 -36l96 -24l-96 -24l92 -36zM619 570l2 -9q16 -72 5 -123l-2 -7h98l1 5q0 14 -5 37q-6 29 -32 57.5
t-58 37.5zM491 563l-8 -5q-26 -13 -41.5 -41.5t-15.5 -54.5q0 -19 2 -27l1 -4h93l-5 8q-26 43 -26 114v10zM313 415l1 -7q12 -73 129 -73h8v-338q0 -66 53 -66h64q35 0 35 36v32q0 50 -45 50q-23 0 -34.5 8.5t-11.5 33.5v170q0 33 25 58t66 25h135q22 0 41.5 16.5t23.5 47.5
l1 7h-491zM739 329h-136q-34 0 -54.5 -20.5t-20.5 -47.5v-170q0 -18 6 -22.5t24 -4.5q40 0 53 -27l8 -18l3 20q5 39 63 39q29 0 41.5 12.5t12.5 41.5v197zM622 255q12 0 20.5 -8.5t8.5 -20.5t-8.5 -20.5t-20.5 -8.5t-20.5 8.5t-8.5 20.5t8.5 20.5t20.5 8.5zM534 -29
q-9 0 -15.5 6.5t-6.5 15.5t6.5 15.5t15.5 6.5t15.5 -6.5t6.5 -15.5t-6.5 -15.5t-15.5 -6.5z" />
    <glyph glyph-name="m.001" horiz-adv-x="847" 
d="M637 500q71 0 109.5 -50.5t38.5 -148.5v-301h-104v279q0 135 -81 135q-48 0 -81 -49t-33 -118v-247h-104v279q0 135 -81 135q-48 0 -81 -49t-33 -118v-247h-103v410l-56 8v72h145l9 -99q50 109 156 109q110 0 139 -118q50 118 160 118z" />
    <glyph glyph-name="zero.osf" horiz-adv-x="545" 
d="M272 500q110 0 165.5 -70.5t55.5 -184.5q0 -118 -55 -186.5t-166 -68.5q-110 0 -165 70.5t-55 184.5t55 184.5t165 70.5zM272 414q-55 0 -85.5 -44.5t-30.5 -124.5t30.5 -124.5t85.5 -44.5t85.5 44.5t30.5 124.5t-30.5 124.5t-85.5 44.5z" />
    <glyph glyph-name="one.osf" horiz-adv-x="378" 
d="M211 0v388l-148 -91l-38 72l199 121h87v-490h-100z" />
    <glyph glyph-name="two.osf" horiz-adv-x="484" 
d="M234 500q92 0 140.5 -42t48.5 -108q0 -59 -30 -101.5t-103 -97.5l-88 -69v-4h230v-78h-379v63l155 121q63 49 86 79t23 70q0 38 -23.5 61.5t-73.5 23.5q-73 0 -141 -50l-30 73q87 59 185 59z" />
    <glyph glyph-name="three.osf" horiz-adv-x="504" 
d="M238 500q98 0 147.5 -47.5t49.5 -117.5q0 -115 -110 -142v-2q131 -33 131 -158q0 -85 -60.5 -132.5t-174.5 -47.5q-102 0 -179 53l24 80q72 -46 151 -46q133 0 133 103q0 109 -143 109h-52v71h52q124 0 124 100q0 91 -106 91q-83 0 -152 -52l-29 77q87 61 194 61z" />
    <glyph glyph-name="four.osf" horiz-adv-x="556" 
d="M425 -135h-98v168h-288l-9 76l294 381h101v-381h92v-76h-92v-168zM323 377l-202 -268h206v268h-4z" />
    <glyph glyph-name="five.osf" horiz-adv-x="488" 
d="M188 404l-18 -172q40 10 84 10q87 0 139 -49.5t52 -136.5q0 -94 -61.5 -147.5t-166.5 -53.5q-106 0 -181 50l24 80q70 -45 148 -45q132 0 132 119q0 52 -32 84.5t-98 32.5q-78 0 -141 -20l36 334h313v-86h-230z" />
    <glyph glyph-name="six.osf" horiz-adv-x="531" 
d="M300 380q92 0 140 -51t48 -135q0 -93 -54 -148.5t-153 -55.5q-111 0 -170 75.5t-59 213.5q0 98 31 177t98.5 129t162.5 50q63 0 103 -20l-19 -81q-41 19 -80 19q-85 0 -133.5 -57.5t-57.5 -158.5q65 43 143 43zM283 72q52 0 81 31.5t29 90.5q0 52 -29 82t-81 30
q-64 0 -129 -44q6 -190 129 -190z" />
    <glyph glyph-name="seven.osf" horiz-adv-x="459" 
d="M178 -135h-107l255 537v5h-295v83h406v-73z" />
    <glyph glyph-name="eight.osf" horiz-adv-x="536" 
d="M50 153q0 36 13 66t37.5 52t43.5 34.5t47 27.5q-115 56 -115 152q0 70 52 110t145 40q94 0 141.5 -40t47.5 -106q0 -98 -115 -154q68 -30 103.5 -71.5t35.5 -102.5q0 -77 -54.5 -124t-165.5 -47q-105 0 -160.5 44t-55.5 119zM272 561q-46 0 -74 -19.5t-28 -54.5
q0 -39 28 -66.5t82 -52.5q43 26 67 52.5t24 65.5q0 35 -25 55t-74 20zM386 163q0 25 -10 45t-31.5 36t-40.5 26t-50 24q-106 -59 -106 -136q0 -39 30 -65t89 -26q55 0 87 26t32 70z" />
    <glyph glyph-name="nine.osf" horiz-adv-x="523" 
d="M247 500q115 0 171 -76t56 -210q0 -159 -69.5 -259t-210.5 -100q-70 0 -118 24l18 78q45 -21 93 -21q165 0 184 215q-69 -39 -144 -39q-86 0 -137 47t-51 132q0 92 55 150.5t153 58.5zM132 295q0 -53 28.5 -82.5t83.5 -29.5q62 0 129 39q-8 197 -126 197q-53 0 -84 -33
t-31 -91z" />
    <glyph glyph-name="registered.superior" horiz-adv-x="410" 
d="M205 650q68 0 115.5 -46.5t47.5 -116.5t-47.5 -116.5t-115.5 -46.5t-115.5 46.5t-47.5 116.5t47.5 116.5t115.5 46.5zM206 348q58 0 98 39t40 100q0 60 -40 99.5t-98 39.5t-98.5 -39.5t-40.5 -99.5t40.5 -99.5t98.5 -39.5zM278 521q0 -41 -36 -54l38 -73h-36l-33 66h-31
v-66h-35v190h62q32 0 51.5 -18t19.5 -45zM180 490h28q36 0 36 31q0 14 -9.5 23t-26.5 9h-28v-63z" />
    <glyph glyph-name="C2" horiz-adv-x="552" 
d="M330 650q105 0 183 -53l-44 -79q-66 41 -136 41q-177 0 -177 -236q0 -243 176 -243q80 0 148 55l44 -75q-15 -14 -36.5 -27.5t-66 -28t-92.5 -14.5q-140 0 -209.5 91t-69.5 240q0 96 28 168t92 116.5t160 44.5z" />
    <glyph glyph-name="Et" horiz-adv-x="649" 
d="M567 85l53 3v-81q-42 -15 -89 -15q-72 0 -111 48q-66 -54 -155 -54q-108 0 -163 51t-55 128q0 68 32 109.5t84 53.5v2q-44 12 -69.5 55t-25.5 97q0 68 50 117.5t145 49.5q32 0 62.5 -6.5t44.5 -12.5l15 -6l-33 -77q-33 16 -78 16q-48 0 -76 -24t-28 -69q0 -50 37.5 -78
t102.5 -30h84v115h102v-115h97v-71h-97v-127q0 -43 17.5 -61t53.5 -18zM278 71q63 0 116 40v180h-85q-159 0 -159 -113q0 -44 29.5 -75.5t98.5 -31.5z" />
    <glyph glyph-name="S2" horiz-adv-x="528" 
d="M276 649q57 0 106 -16t70 -32l20 -16l-51 -71q-7 5 -19 12.5t-49.5 20.5t-75.5 13q-59 0 -86.5 -23.5t-27.5 -60.5q0 -43 31.5 -66.5t113.5 -50.5q87 -27 131 -69t44 -116q0 -83 -58.5 -133.5t-172.5 -50.5q-56 0 -108.5 17.5t-77.5 34.5l-24 18l35 79q10 -7 27.5 -16.5
t64.5 -26t86 -16.5q61 0 90.5 25t29.5 68q0 38 -31 63t-109 47q-89 25 -134 69t-45 122q0 80 59 127.5t161 47.5z" />
    <glyph glyph-name="c2" horiz-adv-x="448" 
d="M270 499q82 0 143 -39l-34 -72q-53 29 -104 29q-132 0 -132 -171q0 -173 132 -173q60 0 111 37l34 -71q-65 -49 -150 -49q-112 0 -170 69.5t-58 187.5q1 116 59 184t169 68z" />
    <glyph glyph-name="s2" horiz-adv-x="441" 
d="M232 500q46 0 86 -13t57 -25l17 -13l-38 -66q-50 41 -118 41q-93 0 -93 -62q0 -34 23.5 -52t80.5 -33q76 -21 115.5 -54t39.5 -89q0 -67 -46 -105.5t-141 -38.5q-30 0 -57.5 4.5t-48 13t-34 15t-25.5 14.5l-13 8l31 71q2 -1 13 -7.5t23.5 -13t29.5 -13.5t38 -11t42 -4
q92 0 92 66q0 27 -24 45.5t-89 35.5q-76 21 -110.5 53t-34.5 95q0 61 49 99.5t135 38.5z" />
    <glyph glyph-name="G2" horiz-adv-x="581" 
d="M542 328v-244q-8 -11 -19.5 -22t-37 -30t-67.5 -30.5t-92 -11.5q-131 0 -203.5 88.5t-72.5 242.5q0 148 69.5 238.5t210.5 90.5q105 0 183 -53l-44 -79q-66 41 -136 41q-40 0 -71 -13t-50.5 -35t-32 -53t-17.5 -64.5t-5 -72.5q0 -112 45.5 -176.5t133.5 -64.5
q83 -1 121 46v129h-143v73h228z" />
    </font>
</defs>
</svg>
