<?xml version="1.0" standalone="no"?>
<!DOCTYPE svg PUBLIC "-//W3C//DTD SVG 1.1//EN" "http://www.w3.org/Graphics/SVG/1.1/DTD/svg11.dtd" >
<svg>
<metadata>
Created by FontForge 20090622 at Tue Apr 25 17:43:11 2017
 By deploy user
Filete, el buen diseno. Todos los derechos reservados, 2015.
</metadata>
<defs>
<font id="BCH-Bold" horiz-adv-x="600" >
  <font-face 
    font-family="BCH Bold"
    font-weight="700"
    font-stretch="normal"
    units-per-em="1000"
    panose-1="0 0 8 0 0 0 0 0 0 0"
    ascent="800"
    descent="-200"
    x-height="490"
    cap-height="640"
    bbox="-76 -231 1257 857"
    underline-thickness="50"
    underline-position="-50"
    unicode-range="U+0020-U+F8FF"
  />
<missing-glyph horiz-adv-x="562" 
d="M31 700h500v-700h-500v700zM451 650h-340l170 -255zM81 95l170 255l-170 255v-510zM481 95v510l-170 -255zM451 50l-170 255l-170 -255h340z" />
    <glyph glyph-name="b_one" unicode="b&#x31;" 
d="M493 304q0 -80 -56.5 -136.5t-136.5 -56.5t-136.5 56.5t-56.5 136.5t56.5 136.5t136.5 56.5t136.5 -56.5t56.5 -136.5zM440 304q0 58 -41 98.5t-99 40.5t-99 -40.5t-41 -98.5t41 -99t99 -41t99 41t41 99zM381 304q0 34 -23.5 57.5t-57.5 23.5t-57.5 -23.5t-23.5 -57.5
t23.5 -57.5t57.5 -23.5t57.5 23.5t23.5 57.5z" />
    <glyph glyph-name="b_two" unicode="b&#x32;" 
d="M300 497q80 0 137 -57t57 -137t-57 -136.5t-137 -56.5t-137 56.5t-57 136.5t57 137t137 57zM300 426q-51 0 -86.5 -36t-35.5 -87t35.5 -86.5t86.5 -35.5t87 35.5t36 86.5t-36 87t-87 36z" />
    <glyph glyph-name="b_three" unicode="b&#x33;" 
d="M301 497q80 0 136 -56.5t56 -136.5t-56.5 -136t-135.5 -56t-136 55.5t-57 136.5q0 80 56.5 136.5t136.5 56.5zM301 424q-49 0 -84 -35t-35 -85q0 -27 10 -50l59 63l50 -53l50 53l59 -63q10 27 10 50q0 50 -35 85t-84 35z" />
    <glyph glyph-name="b_four" unicode="b&#x34;" 
d="M300 497q80 0 136.5 -56t56.5 -136t-56.5 -136.5t-136.5 -56.5q-79 0 -135.5 56.5t-56.5 136.5q0 79 56 135.5t136 56.5zM300 186q50 0 84.5 35t34.5 84q0 39 -23 70.5t-59 43.5l-37 -144l-37 144q-36 -12 -59 -43.5t-23 -70.5q0 -49 35 -84t84 -35z" />
    <glyph glyph-name="b_five" unicode="b&#x35;" 
d="M300 497q80 0 136.5 -56t56.5 -136t-56.5 -136.5t-136.5 -56.5q-79 0 -135.5 56.5t-56.5 136.5q0 79 56 135.5t136 56.5zM300 186q50 0 84.5 35t34.5 84q0 65 -52 99q2 -38 -18 -76q-30 -52 -89 -70q43 45 43 106q0 31 -13 60q-46 -5 -77.5 -38.5t-31.5 -80.5
q0 -49 35 -84t84 -35z" />
    <glyph glyph-name="b_six" unicode="b&#x36;" 
d="M300 212l-93 -93q-32 -30 -78 16q-47 46 -15 78l90 90l-90 90q-32 31 15 78t78 15l93 -93l92 94q32 31 79 -16q46 -47 15 -78l-90 -90l90 -91q31 -31 -15 -78q-48 -46 -79 -15zM300 226q32 0 54.5 22.5t22.5 54.5q0 31 -22.5 54t-54.5 23t-55 -22.5t-23 -54.5t23 -54.5
t55 -22.5z" />
    <glyph glyph-name="b_seven" unicode="b&#x37;" 
d="M421 276l57 -58q20 -18 20 -45t-20 -46q-19 -19 -46 -19.5t-46 18.5l-55 56q-13 -4 -31 -4t-31 4l-56 -56q-19 -20 -46 -20t-46 20q-19 19 -19 46t19 45l58 58q-3 13 -3 27t3 26l-58 59q-19 19 -19 46t19 46t46 19t46 -19l56 -56q15 4 31 4t31 -4l55 56q19 19 46 19
t46 -19q20 -19 20 -46t-20 -46l-57 -57q3 -13 3 -28q0 -14 -3 -26z" />
    <glyph glyph-name="b_eight" unicode="b&#x38;" 
d="M394 303l84 -84q20 -19 20 -46t-20 -46q-19 -19 -46 -19t-46 19l-86 86l-87 -87q-19 -20 -46 -20t-46 20t-19 46.5t19 45.5l85 85l-85 85q-19 19 -19 45.5t19 46.5q20 19 46.5 19t45.5 -19l87 -87l86 87q19 19 46 19t46 -19q20 -20 20 -46.5t-20 -45.5zM300 227
q32 0 54 22.5t22 53.5q0 32 -22.5 54.5t-53.5 22.5q-32 0 -54.5 -22.5t-22.5 -54.5t22.5 -54t54.5 -22z" />
    <glyph glyph-name="d_one" unicode="d&#x31;" horiz-adv-x="719" 
d="M170 389q-52 0 -83 33t-31 92q0 58 31 91t83 33t83 -33t31 -91q0 -59 -31 -92t-83 -33zM224 228l202 399h73l-202 -399h-73zM170 584q-46 0 -46 -71q0 -70 46 -70q47 0 47 70q0 71 -47 71zM433 343q0 58 31.5 91t82.5 33q52 0 83.5 -33t31.5 -91q0 -59 -31.5 -92
t-83.5 -33q-51 0 -82.5 33t-31.5 92zM547 414q-21 0 -33.5 -18t-12.5 -53q0 -71 46 -71q47 0 47 71t-47 71zM287 131q-35 0 -36 -47q1 -47 35 -47q20 0 32 16l28 -24q-19 -33 -60 -33q-35 0 -56.5 21.5t-21.5 66.5t22 66.5t57 21.5q42 0 59 -33l-29 -24q-12 16 -30 16z
M585 172q77 -2 77 -88q-2 -88 -77 -88q-36 0 -56 23t-20 65q0 41 20 64.5t56 23.5zM53 168h56q37 0 60 -20.5t23 -63.5t-23 -63.5t-60 -20.5h-56v168zM362 168h136v-40h-47v-128h-42v128h-47v40zM585 36q34 0 34 48t-34 48q-33 0 -33 -48t33 -48zM96 40h14q39 0 39 44
t-39 44h-14v-88z" />
    <glyph glyph-name="f_i" unicode="fi" horiz-adv-x="666" 
d="M328 730q99 0 161 -31l-26 -101q-56 20 -118 20q-104 0 -104 -80v-48h369v-490h-142v381h-227v-381h-142v381h-78v109h78v55q0 90 53 137.5t176 47.5z" />
    <glyph glyph-name=".notdef" horiz-adv-x="562" 
d="M31 700h500v-700h-500v700zM451 650h-340l170 -255zM81 95l170 255l-170 255v-510zM481 95v510l-170 -255zM451 50l-170 255l-170 -255h340z" />
    <glyph glyph-name=".null" horiz-adv-x="0" 
 />
    <glyph glyph-name="nonmarkingreturn" horiz-adv-x="333" 
 />
    <glyph glyph-name="space" unicode=" " horiz-adv-x="216" 
 />
    <glyph glyph-name="exclam" unicode="!" horiz-adv-x="272" 
d="M79 198l-27 490h168l-27 -490h-114zM136 136q34 0 55 -21.5t21 -52.5t-21 -52t-55 -21t-55.5 21.5t-21.5 52.5t21.5 52t55.5 21z" />
    <glyph glyph-name="quotedbl" unicode="&#x22;" horiz-adv-x="384" 
d="M146 448h-90v272h125zM311 448h-90v272h124z" />
    <glyph glyph-name="numbersign" unicode="#" horiz-adv-x="620" 
d="M574 446v-83h-112l-12 -127h116v-83h-123l-14 -152h-91l14 152h-116l-14 -152h-91l14 152h-99v83h106l12 127h-110v83h117l14 159h91l-14 -159h116l14 159h91l-14 -159h105zM243 236h116l12 127h-116z" />
    <glyph glyph-name="dollar" unicode="$" horiz-adv-x="522" 
d="M486 181q0 -68 -39.5 -114t-115.5 -61v-147h-115v140q-54 5 -103.5 25.5t-76.5 42.5l45 107q97 -60 180 -60q84 0 84 66q0 30 -25 48.5t-92 37.5q-83 25 -129 67.5t-46 121.5q0 70 43 115.5t120 57.5v100h115v-98q95 -12 147 -61l-65 -91q-54 41 -134 41q-85 0 -85 -61
q0 -31 26 -50t94 -42q89 -30 130.5 -70t41.5 -115z" />
    <glyph glyph-name="percent" unicode="%" horiz-adv-x="907" 
d="M199 647q75 0 120.5 -49t45.5 -135t-45.5 -134.5t-120.5 -48.5t-120.5 48.5t-46.5 135.5q1 86 46.5 134.5t120.5 48.5zM240 0l325 640h109l-325 -640h-109zM199 571q-32 0 -51.5 -27t-19.5 -81q0 -53 19.5 -80t51.5 -27q70 0 70 107q0 54 -19 81t-51 27zM709 360
q75 0 120.5 -49t45.5 -135t-45.5 -134.5t-120.5 -48.5t-120.5 48.5t-46.5 135.5q1 86 46.5 134.5t120.5 48.5zM709 283q-32 0 -51.5 -26.5t-19.5 -80.5q0 -53 19.5 -80t51.5 -27t51 26.5t19 80.5t-19 80.5t-51 26.5z" />
    <glyph glyph-name="ampersand" unicode="&#x26;" horiz-adv-x="659" 
d="M275 649q98 0 145 -43.5t47 -117.5q0 -58 -37.5 -101t-84.5 -69l106 -96q17 34 17 64q0 15 -2 23l110 -1q1 -5 1 -28q0 -61 -42 -130l113 -101l-72 -63l-97 86q-73 -87 -210 -87q-101 0 -165.5 48t-64.5 128q0 109 139 173q-96 74 -96 153q0 74 47.5 118t145.5 44z
M275 545q-68 0 -68 -63q0 -22 12.5 -42.5t23 -30.5t29.5 -24q24 12 46 38t22 59q0 63 -65 63zM393 147l-140 126q-39 -20 -57.5 -41t-18.5 -53q0 -38 25.5 -61t73.5 -23q74 0 117 52z" />
    <glyph glyph-name="quotesingle" unicode="'" horiz-adv-x="220" 
d="M146 448h-90v272h125z" />
    <glyph glyph-name="parenleft" unicode="(" horiz-adv-x="345" 
d="M174 243q0 -138 44.5 -245.5t124.5 -217.5h-142q-162 205 -162 463q0 272 162 477h142q-169 -231 -169 -477z" />
    <glyph glyph-name="parenright" unicode=")" horiz-adv-x="345" 
d="M171 243q0 247 -170 477h143q162 -205 162 -477q0 -258 -162 -463h-143q81 109 125.5 217t44.5 246z" />
    <glyph glyph-name="asterisk" unicode="*" horiz-adv-x="456" 
d="M292 290l-63 111l-64 -111l-88 56l67 95l-105 33l36 97l107 -47l-4 116h101l-4 -115l106 45l36 -96l-105 -33l68 -95z" />
    <glyph glyph-name="plus" unicode="+" horiz-adv-x="510" 
d="M469 308v-94h-166v-166h-96v166h-166v94h166v166h96v-166h166z" />
    <glyph glyph-name="comma" unicode="," horiz-adv-x="269" 
d="M131 165q91 0 91 -122q-2 -80 -48 -126.5t-128 -48.5v61q31 2 56.5 17.5t29.5 38.5v8q-4 -2 -15 -2q-32 0 -52.5 23.5t-20.5 61.5q0 44 23 66.5t64 22.5z" />
    <glyph glyph-name="hyphen" unicode="-" horiz-adv-x="401" 
d="M343 206h-286v127h286v-127z" />
    <glyph glyph-name="period" unicode="." horiz-adv-x="263" 
d="M44 77q0 38 24 63t63 25q40 0 64 -25t24 -63t-24 -62.5t-64 -24.5q-39 0 -63 25t-24 62z" />
    <glyph glyph-name="slash" unicode="/" horiz-adv-x="495" 
d="M21 -220l328 940h125l-330 -940h-123z" />
    <glyph glyph-name="zero" unicode="0" horiz-adv-x="599" 
d="M300 636q128 0 190 -84.5t62 -237.5t-62.5 -239t-190.5 -86t-189.5 85.5t-61.5 238.5t62 238t190 85zM300 526q-59 0 -85.5 -53t-26.5 -160q0 -110 26.5 -162t85.5 -52t85.5 52t26.5 162q0 107 -26.5 160t-85.5 53z" />
    <glyph glyph-name="one" unicode="1" horiz-adv-x="412" 
d="M205 0v482l-142 -86l-50 101l216 128h119v-625h-143z" />
    <glyph glyph-name="two" unicode="2" horiz-adv-x="535" 
d="M253 636q115 0 171 -51.5t56 -134.5q0 -74 -51 -142t-201 -194v-4h258v-110h-442v96q128 111 191.5 175t83 97.5t19.5 67.5q0 36 -24.5 58t-74.5 22q-78 0 -159 -52l-38 110q94 62 211 62z" />
    <glyph glyph-name="three" unicode="3" horiz-adv-x="522" 
d="M247 636q109 0 162.5 -49t53.5 -124q0 -57 -30.5 -92.5t-83.5 -47.5v-4q56 -12 91 -50.5t35 -102.5q0 -81 -61 -129t-173 -48q-122 0 -203 52l32 103q83 -43 150 -43q112 0 112 83q0 89 -130 89h-49v92h49q119 0 119 82q0 78 -92 78q-75 0 -149 -55l-37 101q87 65 204 65
z" />
    <glyph glyph-name="four" unicode="4" horiz-adv-x="574" 
d="M449 0h-137v159h-280l-9 99l278 367h148v-363h93v-103h-93v-159zM309 480l-165 -218h168v218h-3z" />
    <glyph glyph-name="five" unicode="5" horiz-adv-x="506" 
d="M216 508l-16 -133q33 7 80 7q81 0 132.5 -50.5t51.5 -134.5q0 -91 -61 -149.5t-182 -58.5q-110 0 -188 54l31 106q67 -46 142 -46q116 0 116 98q0 46 -30 73t-92 27q-76 0 -132 -21l35 345h329v-117h-216z" />
    <glyph glyph-name="six" unicode="6" horiz-adv-x="543" 
d="M308 384q96 0 147.5 -51t51.5 -137q0 -91 -60.5 -149t-162.5 -58q-238 0 -238 295q0 67 16 127t49 112t90.5 82.5t133.5 30.5q87 0 131 -27l-27 -101q-41 19 -91 19q-67 0 -109 -44.5t-54 -131.5q51 33 123 33zM288 96q41 0 66.5 25t25.5 72t-25 72.5t-73 25.5
q-56 0 -102 -32q7 -163 108 -163z" />
    <glyph glyph-name="seven" unicode="7" horiz-adv-x="480" 
d="M215 0h-144l238 512v3h-276v110h424v-100z" />
    <glyph glyph-name="eight" unicode="8" horiz-adv-x="550" 
d="M43 156q0 112 137 174q-109 54 -109 151q0 74 56 115.5t155 41.5q101 0 149.5 -42t48.5 -110q0 -55 -27 -87.5t-78 -63.5q67 -34 99 -72t32 -97q0 -77 -59 -127t-177 -50q-227 0 -227 167zM282 547q-39 0 -61 -17.5t-22 -51.5q0 -61 91 -99q22 16 35.5 27t26 32t12.5 44
q0 30 -20.5 47.5t-61.5 17.5zM369 168q0 71 -110 115q-85 -48 -85 -115q0 -38 25 -59t73 -21q46 0 71.5 22t25.5 58z" />
    <glyph glyph-name="nine" unicode="9" horiz-adv-x="538" 
d="M254 636q238 0 238 -289q0 -57 -8.5 -107t-30 -96.5t-53.5 -80.5t-82.5 -54t-114.5 -20q-85 0 -129 25l25 103q40 -20 95 -20q142 0 161 174q-62 -30 -128 -30q-87 0 -139 48.5t-52 133.5q0 94 57.5 153.5t160.5 59.5zM162 429q0 -46 24 -71t69 -25q50 0 102 28
q-7 167 -104 167q-42 0 -66.5 -25.5t-24.5 -73.5z" />
    <glyph glyph-name="colon" unicode=":" horiz-adv-x="280" 
d="M52 405q0 37 24.5 62.5t63.5 25.5t63.5 -25.5t24.5 -62.5t-24.5 -62.5t-63.5 -25.5t-63.5 25.5t-24.5 62.5zM52 77q0 37 24.5 62.5t63.5 25.5t63.5 -25.5t24.5 -62.5t-24.5 -62t-63.5 -25t-63.5 25t-24.5 62z" />
    <glyph glyph-name="semicolon" unicode=";" horiz-adv-x="289" 
d="M144 494q40 0 64 -25t24 -63t-24 -63t-64 -25q-39 0 -63.5 25.5t-24.5 62.5t24.5 62.5t63.5 25.5zM144 164q91 0 91 -110q-2 -88 -48 -136.5t-129 -50.5v61q31 2 56.5 18t29.5 38v8q-4 -2 -14 -2q-29 0 -51.5 24.5t-22.5 60.5q0 40 24 64.5t64 24.5z" />
    <glyph glyph-name="less" unicode="&#x3c;" horiz-adv-x="410" 
d="M368 413l-219 -144v-3l219 -146l-67 -66l-277 191v44l275 193z" />
    <glyph glyph-name="equal" unicode="=" horiz-adv-x="547" 
d="M60 308v95h427v-95h-427zM60 115v95h427v-95h-427z" />
    <glyph glyph-name="greater" unicode="&#x3e;" horiz-adv-x="410" 
d="M386 289v-44l-276 -191l-67 66l218 146v3l-218 144l68 69z" />
    <glyph glyph-name="question" unicode="?" horiz-adv-x="431" 
d="M211 692q93 0 140.5 -45.5t47.5 -127.5q0 -59 -31 -99t-87 -82q-42 -30 -57 -50.5t-15 -60.5v-20h-110v43q0 46 19 77t65 66q30 22 44.5 35t28.5 36t14 48q0 70 -88 70q-32 0 -63 -8t-47 -16l-15 -9l-19 98q6 5 18.5 12.5t57.5 20t97 12.5zM156 138q36 0 57 -21t21 -53
t-21 -53.5t-57 -21.5q-37 0 -57.5 21.5t-20.5 53.5t20.5 53t57.5 21z" />
    <glyph glyph-name="at" unicode="@" horiz-adv-x="1033" 
d="M548 731q195 0 317.5 -109t122.5 -306q0 -167 -52.5 -246.5t-158.5 -79.5q-67 0 -107.5 33t-49.5 81q-43 -115 -160 -115q-85 0 -137.5 63t-52.5 186q0 127 75 196t210 69q57 0 106.5 -17.5t70.5 -34.5l22 -17v-288q0 -64 56 -64q39 0 64 54.5t25 177.5q0 151 -94.5 243
t-258.5 92q-186 0 -302 -109.5t-116 -292.5q0 -186 94 -289t269 -103q52 0 99 8.5t68 16.5l21 8l26 -78q-9 -5 -26 -11.5t-71 -18t-109 -11.5q-102 0 -181.5 25t-131 67t-85.5 103t-48 128.5t-14 146.5q0 120 40 215t110 154.5t161.5 91t197.5 31.5zM613 236v128
q-46 23 -83 23q-54 0 -86.5 -35t-32.5 -108q0 -141 97 -141q50 0 76.5 35t28.5 98z" />
    <glyph glyph-name="A" unicode="A" horiz-adv-x="616" 
d="M194 145l-41 -145h-145l196 640h208l196 -640h-145l-41 145h-228zM318 524h-20l-74 -263h169z" />
    <glyph glyph-name="B" unicode="B" horiz-adv-x="578" 
d="M414 332v-5q131 -23 131 -167q0 -81 -50.5 -126t-144.5 -45q-92 0 -162 53l-10 -42h-109v640h238q109 0 162.5 -44t53.5 -122q0 -62 -30 -97t-79 -45zM212 373h77q45 0 70 21.5t25 63.5q0 80 -97 80h-75v-165zM317 98q94 0 94 85q0 92 -111 92h-88v-141q49 -36 105 -36z
" />
    <glyph glyph-name="C" unicode="C" horiz-adv-x="572" 
d="M339 651q92 0 146.5 -35.5t54.5 -88.5q0 -35 -19.5 -52.5t-51.5 -17.5q-52 0 -61 53q-25 19 -73 19q-71 0 -110 -52.5t-39 -154.5q0 -100 43 -152t121 -52q88 0 157 52l41 -114q-97 -67 -221 -67q-133 0 -210.5 89t-77.5 243t75.5 242t224.5 88z" />
    <glyph glyph-name="D" unicode="D" horiz-adv-x="661" 
d="M69 641h218q154 0 244 -81t90 -240q0 -158 -75 -244.5t-207 -86.5q-82 0 -152 52l-9 -41h-109v641zM315 106q81 0 120.5 56.5t39.5 157.5q0 98 -51 153.5t-144 55.5h-68v-389q47 -34 103 -34z" />
    <glyph glyph-name="E" unicode="E" horiz-adv-x="536" 
d="M212 373h237v-107h-237l-1 -151l282 1v-116h-424v640l424 1v-116h-280z" />
    <glyph glyph-name="F" unicode="F" horiz-adv-x="526" 
d="M211 347h235v-110h-236v-237h-141v640l423 1v-116h-281v-178z" />
    <glyph glyph-name="G" unicode="G" horiz-adv-x="602" 
d="M554 340v-260q-8 -10 -21.5 -21.5t-41 -29.5t-71.5 -29t-96 -11q-132 0 -208 88t-76 243t76 243t224 88q91 0 145.5 -35.5t54.5 -88.5q0 -33 -19 -51.5t-50 -18.5q-55 0 -63 53q-22 19 -72 19q-76 0 -113 -56.5t-37 -152.5q0 -102 40.5 -155t116.5 -54q64 0 101 33v104
h-122v92h232z" />
    <glyph glyph-name="H" unicode="H" horiz-adv-x="682" 
d="M613 0h-144v254h-256v-254h-144v640h144v-264h256v264h145z" />
    <glyph glyph-name="I" unicode="I" horiz-adv-x="282" 
d="M213 0h-144v640h144v-640z" />
    <glyph glyph-name="J" unicode="J" horiz-adv-x="392" 
d="M329 640v-440q0 -107 -52.5 -159t-148.5 -52q-57 0 -104 21v128q29 -16 72 -16q89 0 89 94v302l-98 9v113h242z" />
    <glyph glyph-name="K" unicode="K" horiz-adv-x="586" 
d="M69 640h144v-268l200 268h165l-223 -281l228 -359h-166l-152 244l-52 -65v-179h-144v640z" />
    <glyph glyph-name="L" unicode="L" horiz-adv-x="500" 
d="M483 0h-414v640h144l-1 -525l271 1v-116z" />
    <glyph glyph-name="M" unicode="M" horiz-adv-x="816" 
d="M603 0v414h-6l-156 -414h-66l-156 414h-6v-414h-144v639h188l148 -405h5l149 405h188v-639h-144z" />
    <glyph glyph-name="N" unicode="N" horiz-adv-x="681" 
d="M459 0l-241 412h-5v-412h-144v640h153l241 -418h5v418h144v-640h-153z" />
    <glyph glyph-name="O" unicode="O" horiz-adv-x="662" 
d="M331 651q141 -1 216.5 -88.5t75.5 -242.5t-75.5 -243t-216.5 -88t-216.5 88t-75.5 243t75.5 242.5t216.5 88.5zM331 529q-71 0 -108 -53.5t-37 -155.5t37 -155.5t108 -53.5q71 1 108 54.5t37 154.5t-37.5 155t-107.5 54z" />
    <glyph glyph-name="P" unicode="P" horiz-adv-x="564" 
d="M69 640h212q118 0 188 -59.5t70 -161.5q0 -98 -71 -160t-187 -62h-68v-197h-144v640zM213 307h64q121 0 121 112q0 111 -121 111h-64v-223z" />
    <glyph glyph-name="Q" unicode="Q" horiz-adv-x="662" 
d="M388 -6q9 -33 37 -47t82 -14h51v-112h-55q-98 0 -157.5 43t-71.5 130q-114 16 -174.5 101.5t-60.5 224.5q0 155 75.5 242.5t216.5 88.5q141 -1 216.5 -88.5t75.5 -242.5q0 -138 -60.5 -223.5t-174.5 -102.5zM331 529q-71 0 -108 -53.5t-37 -155.5t37 -155.5t108 -53.5
q71 1 108 54.5t37 154.5t-37.5 155t-107.5 54z" />
    <glyph glyph-name="R" unicode="R" horiz-adv-x="584" 
d="M69 640h206q127 0 196 -57.5t69 -160.5q0 -60 -29.5 -107t-85.5 -72l128 -242h-155l-96 211q-7 -1 -21 -1h-68v-211h-144v640zM213 321h68q55 0 86 27.5t31 73.5q0 53 -30.5 80.5t-86.5 27.5h-68v-209z" />
    <glyph glyph-name="S" unicode="S" horiz-adv-x="545" 
d="M284 651q100 0 154.5 -33.5t54.5 -87.5q0 -65 -68 -65q-57 0 -64 60q-21 19 -79 19q-50 0 -74 -18.5t-24 -49.5q0 -36 27.5 -56.5t111.5 -45.5q93 -29 138 -75.5t45 -124.5q0 -86 -60.5 -135.5t-182.5 -49.5q-99 0 -160 31.5t-61 86.5q0 31 19 50.5t52 19.5q60 0 71 -60
q32 -21 79 -21q51 0 79 19t28 54t-29 56.5t-114 48.5q-98 31 -140.5 75t-42.5 123q0 84 62.5 131.5t177.5 47.5z" />
    <glyph glyph-name="T" unicode="T" horiz-adv-x="553" 
d="M349 524v-524h-144v524h-188v116h520v-116h-188z" />
    <glyph glyph-name="U" unicode="U" horiz-adv-x="675" 
d="M605 0h-109l-22 109q-32 -53 -90 -86.5t-129 -33.5q-190 0 -190 224v427h144v-400q0 -65 25 -97t79 -32q61 0 104.5 45.5t43.5 127.5v356h144v-640z" />
    <glyph glyph-name="V" unicode="V" horiz-adv-x="629" 
d="M225 0l-220 640h153l114 -351q32 -103 39 -146h7q8 46 40 146l113 351h154l-220 -640h-180z" />
    <glyph glyph-name="W" unicode="W" horiz-adv-x="919" 
d="M554 0l-63 272q-24 101 -28 139h-7q-7 -48 -28 -139l-63 -272h-182l-167 640h153l89 -353q21 -83 25 -146h7l97 499h146l97 -499h7q5 68 24 146l89 353h153l-167 -640h-182z" />
    <glyph glyph-name="X" unicode="X" horiz-adv-x="582" 
d="M573 0h-153l-82 139q-38 65 -44 93h-6q-6 -28 -44 -93l-82 -139h-153l191 317l-187 323h153l78 -137q35 -62 45 -97h5q11 38 44 97l78 137h153l-187 -323z" />
    <glyph glyph-name="Y" unicode="Y" horiz-adv-x="588" 
d="M366 0h-144v221l-221 419h156l100 -208q25 -54 35 -88h4q8 33 35 88l99 208h156l-220 -419v-221z" />
    <glyph glyph-name="Z" unicode="Z" horiz-adv-x="570" 
d="M226 121v-5h301v-116h-485v108l301 411v5h-301v116h485v-108z" />
    <glyph glyph-name="bracketleft" unicode="[" horiz-adv-x="332" 
d="M303 607h-107v-714h107v-113h-241v940h241v-113z" />
    <glyph glyph-name="backslash" unicode="\" horiz-adv-x="495" 
d="M475 -220h-124l-329 940h124z" />
    <glyph glyph-name="bracketright" unicode="]" horiz-adv-x="332" 
d="M28 -220v113h108v714h-108v113h241v-940h-241z" />
    <glyph glyph-name="asciicircum" unicode="^" horiz-adv-x="554" 
d="M379 341l-63 132q-13 28 -22 51.5t-12 33.5l-3 9h-3q-8 -32 -37 -94l-64 -132h-138l170 341h140l170 -341h-138z" />
    <glyph glyph-name="underscore" unicode="_" horiz-adv-x="403" 
d="M403 -146h-403v90h403v-90z" />
    <glyph glyph-name="a" unicode="a" horiz-adv-x="523" 
d="M483 89q12 0 22 2v-90q-31 -7 -72 -7q-82 0 -102 71q-45 -75 -145 -75q-69 0 -111.5 36t-42.5 96q0 74 57.5 112.5t156.5 38.5h68v25q0 96 -91 96q-69 0 -132 -48l-53 86q84 69 204 69q102 0 155.5 -53.5t53.5 -146.5v-160q0 -52 32 -52zM229 76q85 0 85 97v30h-47
q-101 0 -101 -69q0 -25 17.5 -41.5t45.5 -16.5z" />
    <glyph glyph-name="b" unicode="b" horiz-adv-x="583" 
d="M352 501q93 0 143.5 -68t50.5 -188t-50.5 -188t-143.5 -68q-112 0 -159 110l-18 -99h-116v720h142v-312q48 93 151 93zM301 99q49 0 76 38.5t27 107.5t-27 107.5t-76 38.5q-48 0 -76.5 -38t-28.5 -108t28.5 -108t76.5 -38z" />
    <glyph glyph-name="c" unicode="c" horiz-adv-x="486" 
d="M277 501q72 0 120.5 -29t48.5 -78q0 -28 -16.5 -44t-47.5 -16q-53 0 -53 45q-12 17 -49 17q-50 0 -76 -40.5t-26 -107.5q0 -70 31 -110t92 -40q68 0 127 43l35 -96q-75 -56 -190 -56q-112 0 -174.5 68.5t-62.5 189.5q0 119 64 186.5t177 67.5z" />
    <glyph glyph-name="d" unicode="d" horiz-adv-x="583" 
d="M524 0h-116l-18 98q-48 -109 -158 -109q-94 0 -144.5 68.5t-50.5 186.5q0 117 50.5 187t141.5 70q103 0 153 -93v312h142v-720zM283 99q49 0 76.5 39t27.5 107t-28 107t-77 39q-48 0 -75.5 -38.5t-27.5 -108.5t28 -107.5t76 -37.5z" />
    <glyph glyph-name="e" unicode="e" horiz-adv-x="518" 
d="M473 216h-297q14 -118 122 -118q78 0 135 42l40 -95q-81 -56 -200 -56q-110 0 -173.5 67.5t-63.5 191.5q0 117 64.5 185t169.5 68q104 0 157 -59t53 -158q0 -47 -7 -68zM174 285h174q2 10 2 22q0 40 -20.5 65t-60.5 25t-65 -29.5t-30 -82.5z" />
    <glyph glyph-name="f" unicode="f" horiz-adv-x="394" 
d="M320 620q-79 0 -79 -96v-34h142v-94h-142v-396h-142v396h-78v94h78v36q0 99 49 152t140 53q56 0 95 -9v-110q-28 8 -63 8z" />
    <glyph glyph-name="g" unicode="g" horiz-adv-x="521" 
d="M216 88h68q116 0 175 -35t59 -112q0 -81 -68.5 -126.5t-192.5 -45.5q-127 0 -186.5 32.5t-59.5 98.5q0 51 32 77t70 33v4q-22 7 -41 27t-19 55q0 67 60 103q-71 44 -71 135q0 80 58 123.5t156 43.5q58 0 110 -20q41 17 69 79l77 -45q-30 -52 -80 -76q38 -43 38 -105
q0 -82 -58.5 -126.5t-155.5 -43.5q-48 0 -84 10q-28 -16 -28 -45q0 -21 16 -31t56 -10zM256 418q-37 0 -59 -22t-22 -63q0 -42 22 -64.5t59 -22.5t59 22.5t22 64.5q0 41 -22 63t-59 22zM263 -134q125 0 125 69q0 30 -25.5 43.5t-84.5 13.5h-57q-35 0 -57.5 -15.5
t-22.5 -45.5q0 -65 122 -65z" />
    <glyph glyph-name="h" unicode="h" horiz-adv-x="567" 
d="M359 501q154 0 154 -203v-298h-142v266q0 117 -73 117q-42 0 -69.5 -40t-27.5 -101v-242h-142v615l-56 10v95h198v-313q56 94 158 94z" />
    <glyph glyph-name="i" unicode="i" horiz-adv-x="282" 
d="M143 553q-43 0 -65 21t-22 57q0 37 22 58t65 21t65 -21t22 -58q0 -36 -22 -57t-65 -21zM223 0h-142v385l-56 11v94h198v-490z" />
    <glyph glyph-name="j" unicode="j" horiz-adv-x="289" 
d="M150 553q-43 0 -65 21t-22 57q0 37 22 58t65 21t65 -21t22 -58q0 -36 -22 -57t-65 -21zM231 490v-516q0 -205 -183 -205q-49 0 -83 12v112q17 -5 43 -5q43 0 61.5 23t18.5 79v395l-64 10v95h207z" />
    <glyph glyph-name="k" unicode="k" horiz-adv-x="537" 
d="M201 147v-147h-142v603l-56 10v107h198v-415l163 185h158l-187 -200l209 -290h-154l-140 200z" />
    <glyph glyph-name="l" unicode="l" horiz-adv-x="295" 
d="M290 117v-106q-44 -16 -100 -16q-134 0 -134 147v578h142v-541q0 -37 11.5 -51.5t36.5 -14.5q24 0 44 4z" />
    <glyph glyph-name="m" unicode="m" horiz-adv-x="876" 
d="M673 501q148 0 148 -203v-298h-142v270q0 113 -67 113q-38 0 -64 -39t-26 -96v-248h-143v270q0 113 -66 113q-39 0 -64.5 -39t-25.5 -96v-248h-143v386l-55 9v95h181l10 -91q54 102 158 102q106 0 137 -110q54 110 162 110z" />
    <glyph glyph-name="n" unicode="n" horiz-adv-x="589" 
d="M381 501q154 0 154 -203v-298h-142v266q0 117 -73 117q-43 0 -70 -40t-27 -101v-242h-142v386l-56 9v95h181l11 -94q55 105 164 105z" />
    <glyph glyph-name="o" unicode="o" horiz-adv-x="554" 
d="M277 501q113 0 177.5 -70t64.5 -186t-64.5 -186t-177.5 -70t-177.5 70t-64.5 186t64.5 186t177.5 70zM277 391q-47 0 -73 -38t-26 -108t26 -108t73 -38q48 0 74 38t26 108t-26 108t-74 38z" />
    <glyph glyph-name="p" unicode="p" horiz-adv-x="605" 
d="M377 501q88 0 139.5 -67.5t51.5 -185.5q0 -117 -48 -188t-145 -71q-103 0 -151 89l-1 -298h-142v605l-56 10v95h182l11 -92q47 103 159 103zM323 99q49 0 76 38t27 108q0 68 -27 107t-75 39q-50 0 -78 -38.5t-28 -107.5t27.5 -107.5t77.5 -38.5z" />
    <glyph glyph-name="q" unicode="q" horiz-adv-x="585" 
d="M288 501q58 0 109 -13.5t74 -26t50 -31.5q5 -4 7 -5v-645h-143v314q-40 -105 -159 -105q-85 0 -137.5 65.5t-52.5 187.5q0 124 68.5 191.5t183.5 67.5zM289 391q-52 0 -81 -36.5t-29 -108.5q0 -74 28.5 -110.5t74.5 -36.5t74.5 37t28.5 106v117q-41 32 -96 32z" />
    <glyph glyph-name="r" unicode="r" horiz-adv-x="419" 
d="M371 499q19 0 31 -4v-142q-20 6 -49 6q-59 0 -93.5 -49t-34.5 -112v-198h-143v385l-57 10v95h176l20 -127q19 61 57 98.5t93 37.5z" />
    <glyph glyph-name="s" unicode="s" horiz-adv-x="485" 
d="M247 501q87 0 139.5 -27t52.5 -72q0 -53 -66 -53q-61 0 -61 49q-22 11 -61 11q-75 0 -75 -50q0 -27 23 -41.5t81 -27.5q91 -21 130.5 -56t39.5 -98q0 -147 -220 -147q-90 0 -142 26.5t-52 77.5q0 28 17 44.5t47 16.5q31 0 49.5 -16.5t16.5 -43.5q26 -14 69 -14
q81 0 81 51q0 26 -25 42.5t-100 33.5q-81 19 -114.5 54t-33.5 95q0 66 49.5 105.5t154.5 39.5z" />
    <glyph glyph-name="t" unicode="t" horiz-adv-x="392" 
d="M367 490v-94h-124v-215q0 -36 15 -50t45 -14q34 0 64 6v-110q-52 -18 -119 -18q-76 0 -112 35.5t-36 121.5v244h-86v94h86v125h143v-125h124z" />
    <glyph glyph-name="u" unicode="u" horiz-adv-x="567" 
d="M509 0h-119l-17 103q-51 -114 -166 -114q-153 0 -153 194v307h143v-278q0 -56 17 -80.5t54 -24.5q44 0 71 39t27 105v239h143v-490z" />
    <glyph glyph-name="v" unicode="v" horiz-adv-x="541" 
d="M192 0l-184 490h144l88 -258q28 -83 28 -110h5q0 27 28 110l87 258h144l-183 -490h-157z" />
    <glyph glyph-name="w" unicode="w" horiz-adv-x="812" 
d="M492 0l-84 297h-3l-85 -297h-159l-148 490h144l64 -251q22 -88 26 -113h3q1 8 27 113l67 251h124l67 -251q24 -90 28 -113h2q3 21 26 113l64 251h144l-148 -490h-159z" />
    <glyph glyph-name="x" unicode="x" horiz-adv-x="553" 
d="M545 0h-152l-86 131q-18 29 -28 55h-5q-6 -18 -27 -54l-86 -132h-152l160 250l-152 240h152l84 -128q16 -26 22 -48h4q4 21 21 48l84 128h152l-152 -240z" />
    <glyph glyph-name="y" unicode="y" horiz-adv-x="534" 
d="M527 490l-213 -566q-31 -81 -74 -118t-124 -37q-61 0 -87 13v105q39 -9 65 -9q35 0 54 11t29 39l25 63l-195 499h144l87 -251q19 -60 27 -108h5l113 359h144z" />
    <glyph glyph-name="z" unicode="z" horiz-adv-x="494" 
d="M458 0h-422v94l235 288h-228v108h407v-94l-236 -287l244 -1v-108z" />
    <glyph glyph-name="braceleft" unicode="{" horiz-adv-x="397" 
d="M270 724q-163 0 -163 -144v-180q-1 -55 -19 -79t-57 -24h-17v-101h17q39 0 57 -24t19 -79v-180q0 -144 163 -144q27 0 54.5 3.5t41.5 7.5l15 4l-19 105q-28 -8 -66 -8q-36 0 -51.5 16t-15.5 55v170q0 56 -15.5 83t-50.5 39v5q35 12 50.5 39t15.5 83v170q0 39 15.5 55
t53.5 16q16 0 32 -2t24 -4l8 -2l19 105q-51 15 -111 15z" />
    <glyph glyph-name="bar" unicode="|" horiz-adv-x="246" 
d="M185 720l-1 -940h-122v940h123z" />
    <glyph glyph-name="braceright" unicode="}" horiz-adv-x="397" 
d="M127 724q-27 0 -54.5 -4t-42.5 -8l-14 -3l19 -105q29 8 64 8q38 0 53.5 -16t15.5 -55v-170q0 -56 15.5 -83t50.5 -39v-5q-35 -12 -50.5 -39t-15.5 -83v-170q0 -39 -15.5 -55t-51.5 -16q-17 0 -33.5 2t-24.5 4l-8 2l-19 -105q51 -15 111 -15q164 0 164 144v180q0 55 18 79
t58 24h16v101h-16q-40 0 -58 24t-18 79v180q0 144 -164 144z" />
    <glyph glyph-name="exclamdown" unicode="&#xa1;" horiz-adv-x="264" 
d="M132 359q-34 0 -55.5 21t-21.5 52q0 32 21.5 53t55.5 21t55 -21t21 -52t-21 -52.5t-55 -21.5zM75 297h114l27 -490h-168z" />
    <glyph glyph-name="cent" unicode="&#xa2;" horiz-adv-x="478" 
d="M399 131l44 -96q-62 -40 -130 -45v-108h-82v111q-94 15 -143 82t-49 174q2 103 50.5 167.5t141.5 79.5v112h82v-109q70 -4 123 -37l-44 -97q-48 24 -100 24q-59 0 -86 -36t-28 -108q1 -76 28.5 -110.5t85.5 -34.5q54 0 107 31z" />
    <glyph glyph-name="sterling" unicode="&#xa3;" horiz-adv-x="569" 
d="M313 654q-103 0 -161.5 -50t-58.5 -140q0 -56 18 -114h-63v-83h82q4 -31 -1 -64q-9 -67 -71 -92v-111q62 25 146 25q43 0 106 -15t98 -15q36 0 67.5 13.5t45.5 27.5l14 13l-40 88q-37 -30 -82 -30q-31 0 -67.5 12t-66.5 12q-22 0 -41.5 -4.5t-27.5 -8.5l-9 -4v6q4 2 10 7
t18 24.5t15 45.5q4 17 5.5 34.5t0.5 26.5v9h139v83h-150q-12 52 -12 86q0 43 22.5 67.5t63.5 24.5q22 0 39.5 -8t27 -19.5t15.5 -23t7 -19.5l2 -8l104 61q-1 6 -3.5 15.5t-16 34t-32.5 43.5t-57 34.5t-86 15.5z" />
    <glyph glyph-name="yen" unicode="&#xa5;" horiz-adv-x="672" 
d="M593 372v-66h-137l-32 -60h169v-66h-180v-180h-152v180h-184v66h173l-33 60h-140v66h104l-148 268h157l80 -155l65 -126h4l65 126l80 155h157l-148 -268h100z" />
    <glyph glyph-name="brokenbar" unicode="&#xa6;" horiz-adv-x="247" 
d="M62 720h123l-1 -398h-122v398zM184 -220h-122v398h122v-398z" />
    <glyph glyph-name="section" unicode="&#xa7;" horiz-adv-x="547" 
d="M473 158q32 -43 32 -107q1 -89 -62 -145.5t-174 -57.5q-56 0 -109 16t-78 30t-41 27l50 101q84 -55 174 -55q45 0 68 21.5t23 54.5q0 26 -19 46.5t-38 29.5t-58.5 23.5t-49.5 19.5q-60 23 -94.5 59t-34.5 102q0 67 38 109q-38 40 -38 105q0 87 61.5 135.5t166.5 48.5
q62 0 115 -17t75 -34l22 -17l-71 -92q-64 41 -129 41q-46 0 -68.5 -18t-22.5 -46q0 -18 16 -32.5t35.5 -22.5t54.5 -20t53 -20q66 -29 102 -68.5t36 -108.5q0 -64 -35 -108zM261 264q84 -33 113 -51q12 16 12 42q0 30 -21.5 49.5t-60.5 35.5q-10 4 -32 12l-39 14.5t-30 14.5
q-20 -19 -20 -43q0 -25 20.5 -42t57.5 -32z" />
    <glyph glyph-name="copyright" unicode="&#xa9;" horiz-adv-x="744" 
d="M371 647q138 0 234 -94t96 -236t-96 -235.5t-234 -93.5t-233 93.5t-95 235.5t95.5 236t232.5 94zM373 604q-119 0 -202 -81.5t-83 -205.5q0 -125 82.5 -205.5t202.5 -80.5t202.5 80.5t82.5 205.5q0 124 -83 205.5t-202 81.5zM387 517q67 0 119 -35l-34 -75q-42 25 -78 25
q-48 0 -68 -29t-21 -86q1 -56 21 -85t68 -29q39 0 81 26l34 -75q-1 -1 -8 -5l-11.5 -6.5l-13 -7t-17 -7t-19.5 -5t-24.5 -4t-28.5 -1.5q-91 0 -140 53.5t-49 148.5q2 91 50.5 144t138.5 53z" />
    <glyph glyph-name="ordfeminine" unicode="&#xaa;" horiz-adv-x="361" 
d="M317 397q3 0 15 3v-60q-26 -4 -49 -4q-53 0 -66 45q-32 -47 -93 -47q-44 0 -71 22.5t-27 59.5q0 47 37 71t101 24h41v15q0 57 -57 57q-45 0 -82 -30l-36 56q55 43 132 43q66 0 101 -33.5t35 -91.5v-97q0 -33 19 -33zM155 390q50 0 50 58v18h-28q-60 0 -60 -41
q0 -15 10.5 -25t27.5 -10z" />
    <glyph glyph-name="guillemotleft" unicode="&#xab;" 
d="M152 270v-3l164 -131l-68 -76l-218 186v44l218 186l68 -76zM394 270v-3l164 -131l-67 -76l-218 186v44l218 186l67 -76z" />
    <glyph glyph-name="logicalnot" unicode="&#xac;" horiz-adv-x="553" 
d="M396 64v150h-338v94h432v-244h-94z" />
    <glyph glyph-name="registered" unicode="&#xae;" horiz-adv-x="744" 
d="M371 646q138 0 234 -94t96 -236t-96 -235.5t-234 -93.5q-137 0 -232.5 93.5t-95.5 235.5t95.5 236t232.5 94zM373 31q120 0 202.5 80.5t82.5 204.5t-83 205.5t-202 81.5t-202 -81.5t-83 -205.5t82.5 -204.5t202.5 -80.5zM522 380q0 -74 -66 -107l74 -143h-86l-60 126h-53
v-126h-85v378h132q65 0 104.5 -35t39.5 -93zM331 325h45q62 0 62 54q0 27 -16 42.5t-46 15.5h-45v-112z" />
    <glyph glyph-name="degree" unicode="&#xb0;" horiz-adv-x="306" 
d="M30 517q0 55 34.5 88t87.5 33q54 0 89 -33t35 -88q0 -54 -35 -86.5t-89 -32.5q-53 0 -87.5 32.5t-34.5 86.5zM108 517q0 -22 12.5 -35t32.5 -13t32.5 13t12.5 35t-12.5 35.5t-32.5 13.5t-32.5 -13.5t-12.5 -35.5z" />
    <glyph glyph-name="acute" unicode="&#xb4;" horiz-adv-x="477" 
d="M368 720l-111 -158h-128l77 158h162z" />
    <glyph glyph-name="paragraph" unicode="&#xb6;" horiz-adv-x="582" 
d="M323 222h-44q-112 0 -182.5 56t-71.5 152q1 97 71.5 153.5t182.5 56.5h44v-418zM513 -1l-138 1v640l138 -1v-640z" />
    <glyph glyph-name="periodcentered" unicode="&#xb7;" horiz-adv-x="275" 
d="M49 291q0 38 24.5 63t64.5 25q39 0 63 -25t24 -63t-24 -63t-63 -25q-40 0 -64.5 25t-24.5 63z" />
    <glyph glyph-name="ordmasculine" unicode="&#xba;" horiz-adv-x="385" 
d="M192 650q73 0 114.5 -41t41.5 -116t-41.5 -116.5t-114.5 -41.5t-114 41.5t-41 116.5t41 116t114 41zM192 580q-56 0 -56 -87q0 -88 56 -88q57 0 57 88q0 87 -57 87z" />
    <glyph glyph-name="guillemotright" unicode="&#xbb;" 
d="M327 246l-218 -186l-68 76l164 131v3l-164 130l68 76l218 -186v-44zM570 246l-218 -186l-68 76l164 131v3l-164 130l68 76l218 -186v-44z" />
    <glyph glyph-name="questiondown" unicode="&#xbf;" horiz-adv-x="426" 
d="M274 356q-36 0 -57 21t-21 53t21 53.5t57 21.5q37 0 57.5 -21.5t20.5 -53.5q0 -33 -20.5 -53.5t-57.5 -20.5zM218 -198q-93 0 -140.5 45.5t-47.5 126.5q0 59 31.5 99.5t87.5 81.5q41 31 56 51.5t15 59.5v20h110v-43q0 -46 -19.5 -77t-64.5 -65q-29 -22 -44 -35t-28.5 -36
t-13.5 -48q0 -71 87 -71q32 0 63.5 8.5t47.5 16.5l15 9l19 -99q-6 -5 -18.5 -12.5t-58 -19.5t-97.5 -12z" />
    <glyph glyph-name="Aacute" unicode="&#xc1;" horiz-adv-x="616" 
d="M246 699l77 158h162l-112 -158h-127zM194 145l-41 -145h-145l196 640h208l196 -640h-145l-41 145h-228zM318 524h-20l-74 -263h169z" />
    <glyph glyph-name="Eacute" unicode="&#xc9;" horiz-adv-x="536" 
d="M220 699l77 158h162l-112 -158h-127zM212 373h237v-107h-237l-1 -151l282 1v-116h-424v640l424 1v-116h-280z" />
    <glyph glyph-name="Iacute" unicode="&#xcd;" horiz-adv-x="283" 
d="M316 857l-112 -158h-127l77 158h162zM213 0h-144v640h144v-640z" />
    <glyph glyph-name="Ntilde" unicode="&#xd1;" horiz-adv-x="680" 
d="M463 850h79q3 -42 3 -44q0 -44 -27 -76t-73 -31q-41 1 -90 27t-69 26q-40 0 -40 -53h-78q-3 19 -3 43q0 45 25 76t73 31q42 0 92 -26.5t70 -26.5q38 0 38 54zM459 0l-241 412h-5v-412h-144v640h153l241 -418h5v418h144v-640h-153z" />
    <glyph glyph-name="Oacute" unicode="&#xd3;" horiz-adv-x="665" 
d="M518 857l-111 -158h-128l77 158h162zM331 651q141 -1 216.5 -88.5t75.5 -242.5t-75.5 -243t-216.5 -88t-216.5 88t-75.5 243t75.5 242.5t216.5 88.5zM331 529q-71 0 -108 -53.5t-37 -155.5t37 -155.5t108 -53.5q71 1 108 54.5t37 154.5t-37.5 155t-107.5 54z" />
    <glyph glyph-name="multiply" unicode="&#xd7;" horiz-adv-x="465" 
d="M299 280l118 -118l-68 -68l-117 118l-118 -118l-67 67l118 118l-117 117l67 68l118 -118l118 118l66 -67z" />
    <glyph glyph-name="Uacute" unicode="&#xda;" horiz-adv-x="675" 
d="M500 856l-111 -157h-127l77 157h161zM605 0h-109l-22 109q-32 -53 -90 -86.5t-129 -33.5q-190 0 -190 224v427h144v-400q0 -65 25 -97t79 -32q61 0 104.5 45.5t43.5 127.5v356h144v-640z" />
    <glyph glyph-name="aacute" unicode="&#xe1;" horiz-adv-x="523" 
d="M418 706l-111 -157h-127l77 157h161zM483 89q12 0 22 2v-90q-31 -7 -72 -7q-82 0 -102 71q-45 -75 -145 -75q-69 0 -111.5 36t-42.5 96q0 74 57.5 112.5t156.5 38.5h68v25q0 96 -91 96q-69 0 -132 -48l-53 86q84 69 204 69q102 0 155.5 -53.5t53.5 -146.5v-160
q0 -52 32 -52zM229 76q85 0 85 97v30h-47q-101 0 -101 -69q0 -25 17.5 -41.5t45.5 -16.5z" />
    <glyph glyph-name="eacute" unicode="&#xe9;" horiz-adv-x="518" 
d="M447 706l-111 -157h-128l77 157h162zM473 216h-297q14 -118 122 -118q78 0 135 42l40 -95q-81 -56 -200 -56q-110 0 -173.5 67.5t-63.5 191.5q0 117 64.5 185t169.5 68q104 0 157 -59t53 -158q0 -47 -7 -68zM174 285h174q2 10 2 22q0 40 -20.5 65t-60.5 25t-65 -29.5
t-30 -82.5z" />
    <glyph glyph-name="iacute" unicode="&#xed;" horiz-adv-x="284" 
d="M322 706l-111 -157h-128l77 157h162zM225 0h-142v373l-56 11v106h199z" />
    <glyph glyph-name="ntilde" unicode="&#xf1;" horiz-adv-x="589" 
d="M412 711h78q3 -21 3 -44q0 -44 -27 -76t-73 -31q-41 1 -89.5 27t-68.5 26q-41 0 -41 -53h-78q-3 19 -3 43q0 45 25 76t73 31q42 0 92 -26.5t70 -26.5q39 0 39 54zM381 501q154 0 154 -203v-298h-142v266q0 117 -73 117q-43 0 -70 -40t-27 -101v-242h-142v386l-56 9v95
h181l11 -94q55 105 164 105z" />
    <glyph glyph-name="oacute" unicode="&#xf3;" horiz-adv-x="554" 
d="M450 706l-111 -157h-127l77 157h161zM277 501q113 0 177.5 -70t64.5 -186t-64.5 -186t-177.5 -70t-177.5 70t-64.5 186t64.5 186t177.5 70zM277 391q-47 0 -73 -38t-26 -108t26 -108t73 -38q48 0 74 38t26 108t-26 108t-74 38z" />
    <glyph glyph-name="divide" unicode="&#xf7;" horiz-adv-x="529" 
d="M266 507q29 0 46.5 -18t17.5 -46q0 -27 -17.5 -45.5t-46.5 -18.5t-46.5 18.5t-17.5 45.5q0 28 17.5 46t46.5 18zM48 221v95h433v-95h-433zM266 159q29 0 46.5 -18t17.5 -46t-17.5 -46.5t-46.5 -18.5t-46.5 18.5t-17.5 46.5t17.5 46t46.5 18z" />
    <glyph glyph-name="uacute" unicode="&#xfa;" horiz-adv-x="567" 
d="M455 706l-111 -157h-128l77 157h162zM509 0h-119l-17 103q-51 -114 -166 -114q-153 0 -153 194v307h143v-278q0 -56 17 -80.5t54 -24.5q44 0 71 39t27 105v239h143v-490z" />
    <glyph glyph-name="dotlessi" unicode="&#x131;" horiz-adv-x="284" 
d="M225 0h-142v373l-56 11v106h199z" />
    <glyph glyph-name="IJ" unicode="&#x132;" horiz-adv-x="682" 
d="M213 0h-144v640h144v-640zM609 640v-440q0 -107 -52.5 -159t-148.5 -52q-59 0 -103 21v128q29 -16 72 -16q88 0 88 94v302l-97 9v113h241z" />
    <glyph glyph-name="ij" unicode="&#x133;" horiz-adv-x="536" 
d="M143 553q-43 0 -65 21t-22 57q0 37 22 58t65 21q29 0 48 -9q18 9 47 9q43 0 65 -21t22 -58q0 -36 -22 -57t-65 -21q-29 0 -47 9q-19 -9 -48 -9zM319 490v-516q0 -205 -183 -205q-49 0 -83 12v112q17 -5 43 -5q43 0 61.5 23t18.5 79v10h-95v385l-56 11v94h294z" />
    <glyph glyph-name="florin" unicode="&#x192;" horiz-adv-x="556" 
d="M429 546q-34 0 -53 -16.5t-27 -57.5l-17 -93h144l-20 -107h-143l-56 -300q-8 -44 -19.5 -74.5t-33 -59t-58.5 -42.5t-89 -14q-36 0 -69 9t-48 19l-16 9l42 92q31 -20 76 -20q62 0 74 68l60 313h-111l1 107h129l17 90q17 92 59 139t139 47q36 0 70 -8.5t50 -17.5l15 -9
l-31 -95q-5 2 -13 6t-30.5 9.5t-41.5 5.5z" />
    <glyph glyph-name="tilde" unicode="&#x2dc;" 
d="M442 729h79q2 -28 2 -44q0 -45 -26.5 -76.5t-72.5 -30.5q-41 1 -90 27t-69 26q-40 0 -40 -53h-78q-3 20 -3 43q0 45 25 76t73 31q42 0 92 -26.5t70 -26.5q38 0 38 54z" />
    <glyph glyph-name="endash" unicode="&#x2013;" horiz-adv-x="541" 
d="M485 212h-429v113h429v-113z" />
    <glyph glyph-name="emdash" unicode="&#x2014;" horiz-adv-x="919" 
d="M867 223h-815v115h815v-115z" />
    <glyph glyph-name="quoteleft" unicode="&#x2018;" horiz-adv-x="280" 
d="M152 429q-91 0 -91 122q2 81 48.5 127t128.5 48v-61q-31 -2 -56.5 -18t-29.5 -38l-1 -9q5 3 15 3q32 0 53 -24t21 -61q0 -44 -23 -66.5t-65 -22.5z" />
    <glyph glyph-name="quoteright" unicode="&#x2019;" horiz-adv-x="268" 
d="M128 726q91 0 91 -123q-2 -81 -48.5 -127t-128.5 -47v60q31 2 56.5 18t29.5 38v9q-4 -2 -14 -2q-33 0 -53.5 23.5t-20.5 61.5q0 43 23 66t65 23z" />
    <glyph glyph-name="quotesinglbase" unicode="&#x201a;" horiz-adv-x="424" 
d="M131 165q91 0 91 -122q-2 -80 -48 -126.5t-128 -48.5v61q31 2 56.5 17.5t29.5 38.5v8q-4 -2 -15 -2q-32 0 -52.5 23.5t-20.5 61.5q0 44 23 66.5t64 22.5z" />
    <glyph glyph-name="quotedblleft" unicode="&#x201c;" horiz-adv-x="495" 
d="M155 429q-91 0 -91 122q2 80 48 126.5t128 48.5v-61q-31 -2 -56 -17.5t-29 -38.5l-1 -9q5 3 15 3q32 0 53 -24t21 -61q0 -44 -23 -66.5t-65 -22.5zM370 429q-91 0 -91 122q2 81 48.5 127t128.5 48v-61q-31 -2 -56.5 -18t-29.5 -38v-9q4 3 14 3q33 0 53.5 -24t20.5 -61
q0 -44 -23 -66.5t-65 -22.5z" />
    <glyph glyph-name="quotedblright" unicode="&#x201d;" horiz-adv-x="495" 
d="M128 726q91 0 91 -123q-2 -81 -48.5 -127t-128.5 -47v60q31 2 56.5 18t29.5 38v9q-4 -2 -14 -2q-33 0 -53.5 23.5t-20.5 61.5q0 43 23 66t65 23zM343 726q91 0 91 -123q-2 -80 -48 -126.5t-128 -47.5v60q31 2 56 17.5t29 38.5l1 9q-5 -2 -15 -2q-32 0 -53 24t-21 61
q0 43 23 66t65 23z" />
    <glyph glyph-name="quotedblbase" unicode="&#x201e;" horiz-adv-x="502" 
d="M131 165q91 0 91 -122q-2 -80 -48 -126.5t-128 -48.5v61q31 2 56.5 17.5t29.5 38.5v8q-4 -2 -15 -2q-32 0 -52.5 23.5t-20.5 61.5q0 44 23 66.5t64 22.5zM347 165q91 0 91 -122q-2 -81 -48.5 -127t-128.5 -48v61q31 2 56.5 17.5t29.5 38.5v8q-4 -2 -14 -2
q-33 0 -53.5 23.5t-20.5 61.5q0 44 23 66.5t65 22.5z" />
    <glyph glyph-name="bullet" unicode="&#x2022;" horiz-adv-x="406" 
d="M69 286q0 55 38.5 94t95.5 39q55 0 94.5 -39t39.5 -94q0 -56 -39.5 -95.5t-94.5 -39.5q-57 0 -95.5 39t-38.5 96z" />
    <glyph glyph-name="ellipsis" unicode="&#x2026;" horiz-adv-x="858" 
d="M44 77q0 38 24 63t64 25q39 0 63.5 -25t24.5 -63q0 -37 -24.5 -62t-63.5 -25q-40 0 -64 24.5t-24 62.5zM341 77q0 38 24 63t64 25q39 0 63.5 -25t24.5 -63q0 -37 -24.5 -62t-63.5 -25q-40 0 -64 24.5t-24 62.5zM638 77q0 38 24.5 63t63.5 25t63.5 -25t24.5 -63
q0 -37 -24.5 -62t-63.5 -25t-63.5 25t-24.5 62z" />
    <glyph glyph-name="perthousand" unicode="&#x2030;" horiz-adv-x="1289" 
d="M199 647q75 0 120.5 -49t45.5 -135t-45.5 -134.5t-120.5 -48.5t-120.5 48.5t-46.5 135.5q1 86 46.5 134.5t120.5 48.5zM240 0l325 640h109l-325 -640h-109zM199 571q-33 0 -52.5 -27t-19.5 -81t20 -81t52 -27t51.5 27t19.5 81q0 55 -19.5 81.5t-51.5 26.5zM709 360
q75 0 120.5 -49t45.5 -135t-45.5 -134.5t-120.5 -48.5t-120.5 48.5t-46.5 135.5q1 86 46.5 134.5t120.5 48.5zM1091 360q75 0 120.5 -49t45.5 -135t-45.5 -134.5t-120.5 -48.5t-120.5 49t-45.5 135t45.5 134.5t120.5 48.5zM709 284q-32 0 -51.5 -26.5t-19.5 -81.5
q0 -54 19.5 -80.5t51.5 -26.5t51 26.5t19 80.5q0 55 -19 81.5t-51 26.5zM1091 284q-32 0 -51.5 -26.5t-19.5 -81.5q0 -54 19.5 -80.5t51.5 -26.5q70 0 70 107q0 108 -70 108z" />
    <glyph glyph-name="guilsinglleft" unicode="&#x2039;" horiz-adv-x="358" 
d="M249 476l67 -76l-164 -130v-3l164 -131l-67 -76l-219 187v42z" />
    <glyph glyph-name="guilsinglright" unicode="&#x203a;" horiz-adv-x="358" 
d="M328 247l-219 -187l-67 76l164 131v3l-164 130l67 76l219 -187v-42z" />
    <glyph glyph-name="fraction" unicode="&#x2044;" horiz-adv-x="459" 
d="M1 0l325 640h133l-326 -640h-132z" />
    <glyph glyph-name="Euro" unicode="&#x20ac;" horiz-adv-x="678" 
d="M407 655q55 0 99 -14.5t70 -37.5t39 -40t22 -34l-97 -77q-14 27 -45 49.5t-82 22.5q-50 0 -86.5 -29.5t-48.5 -88.5h187l-10 -67h-416v67h88q17 114 92.5 181.5t187.5 67.5zM440 224h-161q12 -52 47.5 -80t86.5 -28q93 0 141 67l84 -82q-68 -116 -228 -116
q-107 0 -185.5 65.5t-97.5 173.5h-88v66h411z" />
    <glyph glyph-name="minus" unicode="&#x2212;" horiz-adv-x="553" 
d="M60 214v94h433v-94h-433z" />
    <glyph glyph-name="infinity" unicode="&#x221e;" horiz-adv-x="764" 
d="M44 327q0 74 45 119.5t120 45.5q55 0 95 -25t82 -80q50 55 91 80.5t95 25.5q71 0 109.5 -45t38.5 -109q0 -76 -43 -122t-111 -46q-97 0 -181 94q-88 -96 -177 -96q-77 0 -120.5 43t-43.5 115zM447 329q56 -68 110 -68q27 0 44 21t17 49q0 32 -16 50.5t-45 18.5
q-30 0 -53.5 -17t-56.5 -54zM319 328q-50 71 -105 71q-32 0 -50 -20t-18 -50q0 -31 18 -50t48 -19q56 0 107 68z" />
    <glyph glyph-name="uniF6C9" unicode="&#xf6c9;" 
d="M477 857l-111 -158h-128l78 158h161z" />
    <glyph glyph-name="uniF8FF" unicode="&#xf8ff;" horiz-adv-x="1117" 
d="M935 179l87 -48l-99 1l80 -58l-98 13l73 -67l-96 25l64 -76l-93 37l54 -83l-86 48l43 -89l-81 59l32 -95l-72 69l19 -98l-63 77l7 -98l-52 84l-6 -100l-42 91l-17 -98l-31 95l-30 -95l-17 98l-42 -91l-6 100l-52 -84l7 98l-63 -77l19 98l-72 -69l32 95l-81 -59l43 89
l-86 -48l54 83l-93 -37l64 76l-96 -25l73 67l-98 -13l80 58l-99 -1l87 48l-98 11l92 36l-96 24l96 24l-92 36l98 12l-87 47h99l-80 58l98 -14l-73 68l96 -25l-64 76l93 -38l-54 84l86 -49l-43 90l81 -59l-32 94l72 -68l-19 97l63 -77l-7 99l52 -84l6 99l42 -90l17 98l30 -95
l31 95l17 -98l42 90l6 -99l52 84l-7 -99l63 77l-19 -97l72 68l-32 -94l81 59l-43 -90l86 49l-54 -84l93 38l-64 -76l96 25l-73 -68l98 14l-80 -58h99l-87 -47l98 -12l-92 -36l96 -24l-96 -24l92 -36zM619 570l2 -9q16 -72 5 -123l-2 -7h98l1 5q0 14 -5 37q-6 29 -32 57.5
t-58 37.5zM491 563l-8 -5q-26 -13 -41.5 -41.5t-15.5 -54.5q0 -19 2 -27l1 -4h93l-5 8q-26 43 -26 114v10zM313 415l1 -7q12 -73 129 -73h8v-338q0 -66 53 -66h64q35 0 35 36v32q0 50 -45 50q-23 0 -34.5 8.5t-11.5 33.5v170q0 33 25 58t66 25h135q22 0 41.5 16.5t23.5 47.5
l1 7h-491zM739 329h-136q-34 0 -54.5 -20.5t-20.5 -47.5v-170q0 -18 6 -22.5t24 -4.5q40 0 53 -27l8 -18l3 20q5 39 63 39q29 0 41.5 12.5t12.5 41.5v197zM622 255q12 0 20.5 -8.5t8.5 -20.5t-8.5 -20.5t-20.5 -8.5t-20.5 8.5t-8.5 20.5t8.5 20.5t20.5 8.5zM534 -29
q-9 0 -15.5 6.5t-6.5 15.5t6.5 15.5t15.5 6.5t15.5 -6.5t6.5 -15.5t-6.5 -15.5t-15.5 -6.5z" />
    <glyph glyph-name="m.001" horiz-adv-x="876" 
d="M673 501q148 0 148 -203v-298h-142v270q0 113 -67 113q-38 0 -64 -39t-26 -96v-248h-143v270q0 113 -66 113q-39 0 -64.5 -39t-25.5 -96v-248h-143v386l-55 9v95h181l10 -91q54 102 158 102q106 0 137 -110q54 110 162 110z" />
    <glyph glyph-name="zero.osf" horiz-adv-x="561" 
d="M281 501q114 0 174.5 -69t60.5 -187q0 -120 -60 -188t-175 -68t-175.5 69t-60.5 187t60.5 187t175.5 69zM281 384q-44 0 -69 -36.5t-25 -102.5t25 -102.5t69 -36.5t68.5 36t24.5 103t-24.5 103t-68.5 36z" />
    <glyph glyph-name="one.osf" horiz-adv-x="401" 
d="M203 0v348l-135 -83l-51 98l210 127h114v-490h-138z" />
    <glyph glyph-name="two.osf" horiz-adv-x="498" 
d="M240 501q95 0 147.5 -43t52.5 -113q0 -56 -31 -98.5t-99 -92.5l-64 -49v-4h206v-101h-406v82l155 115q53 40 73.5 66t20.5 59q0 30 -19.5 49t-60.5 19q-63 0 -133 -44l-39 96q32 19 50.5 28.5t59 20t87.5 10.5z" />
    <glyph glyph-name="three.osf" horiz-adv-x="515" 
d="M244 501q106 0 159 -50t53 -121q0 -111 -108 -140v-4q125 -34 125 -153q0 -87 -64.5 -133.5t-184.5 -46.5q-108 0 -190 53l31 105q74 -42 152 -42q111 0 111 81q0 88 -125 88h-53v91h53q113 0 113 84q0 72 -92 72q-79 0 -150 -48l-37 100q90 64 207 64z" />
    <glyph glyph-name="four.osf" horiz-adv-x="574" 
d="M447 -135h-134v162h-279l-9 99l289 364h133v-364h93v-99h-93v-162zM309 341l-165 -215h169v215h-4z" />
    <glyph glyph-name="five.osf" horiz-adv-x="498" 
d="M212 374l-15 -139q48 9 79 9q84 0 135 -49.5t51 -135.5q0 -93 -62 -148.5t-176 -55.5q-111 0 -194 54l30 105q75 -46 148 -46q111 0 111 96q0 44 -27.5 71.5t-87.5 27.5q-78 0 -141 -18l37 345h330v-116h-218z" />
    <glyph glyph-name="six.osf" horiz-adv-x="542" 
d="M316 386q92 0 141 -51.5t49 -137.5q0 -95 -57.5 -151.5t-163.5 -56.5q-116 0 -177.5 75.5t-61.5 214.5q0 155 80 256t223 101q72 0 112 -22l-27 -106q-34 17 -77 17q-72 0 -114.5 -44.5t-53.5 -127.5q52 33 127 33zM287 98q41 0 65 25.5t24 73.5q0 44 -24 68t-66 24
q-51 0 -103 -31q4 -85 29.5 -122.5t74.5 -37.5z" />
    <glyph glyph-name="seven.osf" horiz-adv-x="472" 
d="M210 -136h-144l238 511v5h-276v110h424v-100z" />
    <glyph glyph-name="eight.osf" horiz-adv-x="545" 
d="M43 154q0 34 12 62.5t35 50.5t41 35t47 30q-107 54 -107 145q0 75 54.5 117t155.5 42q98 0 148 -41.5t50 -110.5q0 -95 -108 -148q65 -31 97 -71t32 -102q0 -79 -56 -126.5t-174 -47.5q-114 0 -170.5 44.5t-56.5 120.5zM280 542q-37 0 -60.5 -15.5t-23.5 -45.5
q0 -33 23.5 -56.5t67.5 -44.5q23 16 36.5 27t25.5 31t12 42q0 29 -21 45.5t-60 16.5zM367 166q0 39 -28 63.5t-84 50.5q-81 -55 -81 -117q0 -32 24 -53.5t72 -21.5q45 0 71 21t26 57z" />
    <glyph glyph-name="nine.osf" horiz-adv-x="530" 
d="M250 501q238 0 238 -289q0 -57 -8.5 -107t-30 -96.5t-53.5 -80.5t-82 -54t-114 -20q-78 0 -130 26l25 104q44 -22 94 -22q143 0 161 174q-58 -30 -127 -30q-87 0 -139 48.5t-52 133.5q0 95 57.5 154t160.5 59zM158 294q0 -46 24 -71t69 -25q50 0 102 28q-7 167 -104 167
q-42 0 -66.5 -25.5t-24.5 -73.5z" />
    <glyph glyph-name="registered.superior" horiz-adv-x="422" 
d="M211 651q73 0 124 -50.5t51 -126.5q0 -75 -51 -125t-124 -50q-74 0 -125 49.5t-51 125.5t51 126.5t125 50.5zM212 326q62 0 104.5 42t42.5 106q0 65 -42.5 107.5t-104.5 42.5t-105.5 -42.5t-43.5 -107.5q0 -64 43.5 -106t105.5 -42zM292 507q0 -40 -34 -55l39 -76h-50
l-31 65h-25v-65h-48v200h71q35 0 56.5 -18.5t21.5 -50.5zM191 480h22q32 0 32 27q0 29 -32 29h-22v-56z" />
    <glyph glyph-name="C2" horiz-adv-x="563" 
d="M340 651q117 0 195 -53l-58 -109q-64 38 -133 38q-155 0 -155 -203q0 -212 155 -212q73 0 144 51l55 -104q-27 -24 -81 -47t-123 -23q-148 0 -222.5 91.5t-74.5 240.5q0 148 73.5 239t224.5 91z" />
    <glyph glyph-name="Et" horiz-adv-x="694" 
d="M616 118l52 3v-114q-53 -18 -107 -18q-82 0 -124 50q-73 -54 -166 -54q-111 0 -169.5 50.5t-58.5 127.5q0 65 28.5 104.5t75.5 54.5v2q-41 14 -65 54t-24 97q0 68 54 119.5t158 51.5q22 0 43 -3t36 -6.5t27 -7.5t18 -7l7 -2l-42 -103q-31 13 -70 13q-42 0 -66 -19
t-24 -56q0 -84 136 -88h68v123h140v-123h98v-92h-98v-80q0 -43 17.5 -60t55.5 -17zM292 101q59 0 111 30v144h-69q-78 0 -113 -21.5t-35 -68.5q0 -35 24.5 -59.5t81.5 -24.5z" />
    <glyph glyph-name="S2" horiz-adv-x="541" 
d="M284 650q40 0 76.5 -7t60 -17t41 -20t25.5 -17l8 -7l-70 -92q-55 41 -134 41q-91 0 -91 -64q0 -34 28 -53t104 -44q85 -29 128 -70.5t43 -118.5q0 -88 -64.5 -140t-179.5 -52q-60 0 -116.5 18.5t-83.5 36.5l-27 19l48 103q99 -57 179 -57q95 0 95 69q0 30 -26.5 50.5
t-94.5 39.5q-85 24 -133.5 69.5t-48.5 129.5q0 86 62.5 134.5t170.5 48.5z" />
    <glyph glyph-name="c2" horiz-adv-x="457" 
d="M279 500q87 0 149 -38l-43 -97q-51 24 -97 24q-61 0 -87 -36.5t-26 -107.5t26 -108t87 -37q51 0 104 31l43 -96q-69 -46 -156 -46q-118 0 -180.5 69t-62.5 191q2 117 64.5 184t178.5 67z" />
    <glyph glyph-name="s2" horiz-adv-x="450" 
d="M238 501q47 0 89.5 -12.5t62.5 -25.5l19 -13l-49 -88q-53 40 -113 40q-69 0 -69 -47q0 -28 19.5 -43t64.5 -28q73 -22 113.5 -55t40.5 -92q0 -70 -50 -108.5t-149 -38.5q-96 0 -186 53l37 97q89 -50 147 -50q68 0 68 46q0 21 -19 35t-69 29q-75 22 -113 55t-38 101
q0 66 53 105.5t141 39.5z" />
    <glyph glyph-name="G2" horiz-adv-x="589" 
d="M557 340v-260q-8 -10 -21.5 -21.5t-41 -29.5t-71.5 -29t-96 -11q-132 0 -208.5 88.5t-76.5 242.5q0 149 73.5 240t224.5 91q117 0 195 -53l-58 -109q-64 38 -133 38q-155 0 -155 -206q0 -102 40.5 -155.5t116.5 -54.5q64 0 101 33v104h-122v92h232z" />
    </font>
</defs>
</svg>
