<svg width="26" height="30" viewBox="0 0 26 30" xmlns="http://www.w3.org/2000/svg"><title>13153386-69A3-4038-BD74-174E0B28E927</title><g fill="#0574C6" fill-rule="evenodd"><path d="M9.954 10.178c-.51.163-1.126.26-2.112.48 0 0 .768.478 1.792 1.197 1.214.852 3.073 2.755 3.073 2.755s1.988-1.714 2.624-2.276c1.152-1.018 3.52-1.797 3.52-1.797-.944-.172-1.929.026-2.944-.299-.488-.156-.401-1.003-.61-1.811.94-1.015 1.552-2.512 1.552-3.905 0-2.409-.379-4.276-4-4.362C9.612.083 8.852 2.113 8.852 4.522c0 1.398.591 2.899 1.518 3.914-.189.778.089 1.581-.415 1.742M24.154 18.946c-.23-.041-3.529-.646-3.612-1.103-.044-.24.596-.237 1.24-.176-.525-.172-1.025-.365-1.322-.55-1.317-.82 1.974-.374 1.974-.374s-2.003-.463-2.349-.779c-.796-.728 2.615-.097 2.615-.097s-1.036-.395-2.072-.632-.604-.711-.604-.711l4.316.237.556.482.926-6.289s-5.07 1.015-7.683 2.756c-2.12 1.41-4.977 4.02-4.977 4.02l-.157 13.975s2.804-2.696 5.45-3.93c2.647-1.234 5.095-1.4 5.095-1.4l.753-5.11-.149-.319zM7.05 11.057C3.96 8.882 0 7.794 0 7.794l.796 7.34.43-.373 4.316-.237s.431.474-.605.711-2.072.632-2.072.632 3.411-.631 2.615.098c-.345.316-2.349.778-2.349.778s3.291-.445 1.975.375c-.298.185-.798.377-1.322.549.643-.061 1.283-.064 1.24.176-.084.457-3.384 1.062-3.613 1.104l-.163.349.582 5.367s1.91.112 4.11.967c2.615 1.015 6.12 4.219 6.12 4.219l.158-14.263S9.16 12.543 7.05 11.057"/></g></svg>