<svg width="21" height="28" viewBox="0 0 21 28" xmlns="http://www.w3.org/2000/svg"><title>E25AA85E-2134-4B01-BF88-ADA2EB31858E</title><g fill="#0574C6" fill-rule="evenodd"><path d="M20.326 24.9l-17.812-.087S.756 24.9.604 26.325c-.165 1.528 1.834 1.598 1.834 1.598l17.939.044s-.879-.604-.816-1.534c.051-.756.765-1.533.765-1.533"/><path d="M17.878 9.283L14.78 12.69c-.363.4-.964.462-1.4.146l-2.135-1.544-2.696 4.857a1.063 1.063 0 0 1-.672.517c-.285.072-.587.02-.833-.142l-.848-.556-1.558 2.623a1.06 1.06 0 0 1-1.458.369 1.08 1.08 0 0 1-.364-1.473l2.125-3.578c.148-.25.39-.428.672-.493.28-.066.576-.014.818.145l.82.539L9.97 9.195c.148-.266.4-.457.696-.523.295-.067.604-.003.85.175l2.334 1.69 2.463-2.707a1.055 1.055 0 0 1 1.501-.063c.432.4.46 1.08.063 1.516zM20.245.21S3.74.088 1.803.331C-.23.586.009 2.156.009 2.156l.047 23.938s.13-.723.178-.842c.612-1.49 3.084-1.404 3.084-1.404l16.983.099L20.245.209z"/></g></svg>