<svg width="37" height="32" viewBox="0 0 37 32" xmlns="http://www.w3.org/2000/svg"><title>29551DED-F598-40DC-8D16-C9DD1EC9B35E</title><g fill="none" fill-rule="evenodd"><path d="M15.197 21.68H12.68a3.908 3.908 0 0 1-1.026-.23c-.523-.2-.43-1.283-.654-2.319 1.007-1.3 1.662-3.215 1.662-5 0-3.084-.405-5.475-4.282-5.585-3.468-.099-4.281 2.5-4.281 5.586 0 1.789.633 3.711 1.625 5.011-.202.996.095 2.025-.444 2.23a9.175 9.175 0 0 1-1.05.308H2.267c-1.228 0-2.224 1.087-2.224 2.428v4.425c0 1.34.996 2.428 2.224 2.428h12.93c1.228 0 2.224-1.087 2.224-2.428v-4.425c0-1.34-.996-2.428-2.224-2.428" fill="#0084C3"/><path d="M34.596 21.75h-2.518a3.908 3.908 0 0 1-1.027-.23c-.523-.2-.43-1.284-.654-2.319 1.008-1.3 1.662-3.216 1.662-5 0-3.084-.405-5.475-4.281-5.585-3.468-.099-4.282 2.5-4.282 5.585 0 1.79.633 3.712 1.625 5.012-.202.995.096 2.024-.444 2.23a9.183 9.183 0 0 1-1.05.308h-1.962c-1.228 0-2.223 1.087-2.223 2.428v4.424c0 1.341.995 2.429 2.223 2.429h12.93c1.229 0 2.224-1.088 2.224-2.429V24.18c0-1.341-.995-2.428-2.223-2.428" fill="#007FC4"/><path d="M14.907 13.35a8.314 8.314 0 0 1-.914.272c-.074 1.688-.512 3.698-1.459 4.919.224 1.035-.064 1.873.458 2.072.346.133.688.197 1.027.23h2.518c.836 0 1.563.505 1.943 1.25.371-.775 1.114-1.305 1.97-1.305h1.963c.414-.103.751-.193 1.05-.307.54-.206-.105-1.084.097-2.08-.916-1.2-1.177-3.08-1.266-4.747a3.903 3.903 0 0 1-1.013-.228c-.523-.2-.43-1.284-.654-2.32 1.008-1.3 1.662-3.215 1.662-5 0-3.084-.405-5.475-4.281-5.585-3.468-.099-4.282 2.501-4.282 5.586 0 1.789.633 3.711 1.625 5.011-.202.996.096 2.025-.444 2.231" fill="#0084C3"/></g></svg>