<svg width="23" height="29" viewBox="0 0 23 29" xmlns="http://www.w3.org/2000/svg"><title>D8D05D4E-5FDE-4686-B0F1-1C1628849D52</title><g fill="#0574C6" fill-rule="evenodd"><path d="M11.103 4.07a1.014 1.014 0 0 0 1.025-1.018 1.016 1.016 0 0 0-.986-1.026 1.016 1.016 0 0 0-1.04 1.003 1.015 1.015 0 0 0 1.001 1.042m.02 4.077h.127c.645 0 1.09-.405 1.107-1.007.016-.577-.454-1.029-1.082-1.04-2.816-.045-5.248 1.751-5.993 4.468a6.576 6.576 0 0 0-.221 1.63c-.024 1.749-.015 3.498-.257 5.237-.169 1.212-.47 2.383-.976 3.5-.345.763.205 1.55 1.014 1.472.416-.04.68-.288.853-.663.76-1.634 1.124-3.37 1.243-5.154.097-1.46.116-2.924.136-4.387.03-2.244 1.82-4.053 4.05-4.056m-.006 16.296H1.242c-.863 0-1.215-.372-1.241-1.232-.016-.523.161-.895.563-1.235 1.19-1.004 1.771-2.366 2.09-3.858.319-1.501.376-3.027.383-4.555.005-1.102-.042-2.205.238-3.288.615-2.382 2.006-4.14 4.147-5.3.692-.375.842-.651.716-1.428-.26-1.612.779-3.165 2.332-3.483 1.633-.335 3.228.66 3.576 2.282.095.443.054.926.013 1.384-.05.544.105.915.605 1.168 1.518.77 2.7 1.896 3.524 3.396.666 1.21.977 2.513 1.006 3.894.03 1.41.05 2.821.135 4.229.07 1.176.313 2.327.787 3.417.391.899.944 1.674 1.71 2.287.504.402.432.963.367 1.495-.05.409-.324.684-.731.785-.14.035-.291.04-.437.04-3.302.002-6.605.002-9.907.002M7.232 25.479h7.735c-.055 1.38-1.805 2.873-3.547 3.032-1.884.172-3.79-1.193-4.188-3.032"/></g></svg>