<svg width="21" height="28" viewBox="0 0 21 28" xmlns="http://www.w3.org/2000/svg"><title>AF06E149-8499-4BB8-8E24-C10EA66A9544</title><g fill="#007AC5" fill-rule="evenodd"><path d="M5.518 11.99L2.636 6.775s2.799-2.08 3.796-2.704c1.473-.92 4.612-2.072 4.612-2.072l2.882 5.217s-2.957 2.237-4.055 2.854c-1.041.585-4.353 1.922-4.353 1.922M15.383 6.464c-.41.233-1.032-.104-1.39-.75l-1.948-3.526c-.357-.647-.315-1.36.095-1.594l.916-.52c.41-.233 1.032.103 1.39.75l1.947 3.526c.358.647.316 1.36-.094 1.594l-.916.52zM3.58 13.68c-.41.232-1.032-.104-1.39-.751L.244 9.404c-.358-.648-.315-1.361.094-1.594l.916-.52c.41-.233 1.032.103 1.39.75l1.948 3.525c.358.648.315 1.361-.095 1.594l-.916.52zM20.773 25.065L11.585 9.882a11.139 11.139 0 0 1-2.721 1.427l8.019 15.966c.408.738 2.096.899 2.824.485.727-.413 1.474-1.957 1.066-2.695"/></g></svg>