<svg width="29" height="30" viewBox="0 0 29 30" xmlns="http://www.w3.org/2000/svg"><title>3B7A484B-4B27-4D48-856C-E438D8277E02</title><g fill="#0574C6" fill-rule="evenodd"><path d="M3.665 19.94h13.937v-1.704H3.665v1.703zm9.787-2.743h3.206V7.243h-3.206v9.954zm-4.333 0h3.206v-5.958H9.119v5.958zm-4.365 0h3.269v-7.12h-3.27v7.12zM17.67 2.661a.68.68 0 0 1 .68.677V22.63a.679.679 0 0 1-.68.677H3.112a.679.679 0 0 1-.68-.677V3.338c0-.373.304-.677.68-.677H17.67zM18.168 0H2.372A2.375 2.375 0 0 0 0 2.374v21.081a2.375 2.375 0 0 0 2.372 2.374h15.796a2.375 2.375 0 0 0 2.372-2.374V2.374A2.376 2.376 0 0 0 18.168 0z"/><path d="M26.54 4.158l-5.018-1.131v2.727l3.947.89a.68.68 0 0 1 .516.81l-4.235 18.82a.679.679 0 0 1-.813.511l-.948-.214H8.521l12.348 2.784a2.374 2.374 0 0 0 2.835-1.794l4.628-20.566a2.376 2.376 0 0 0-1.793-2.837"/></g></svg>