<svg width="24" height="24" viewBox="0 0 24 24" xmlns="http://www.w3.org/2000/svg"><title>C5FB156B-7E19-42E5-B3A0-AA1F0A6E8158</title><g fill="#007AC5" fill-rule="evenodd"><path d="M18.652 10.67s-.463 4.802-.54 6.211c-.058 1.07.27 3.702.27 3.702l3.28-.041s.27-2.427.136-3.702c-.146-1.373-.495-6.17-.495-6.17h-2.651zM2.562 10.71s-.463 4.803-.54 6.212c-.058 1.07.27 3.702.27 3.702l3.281-.041s.27-2.427.135-3.702c-.145-1.374-.495-6.17-.495-6.17H2.562zM1.034 23.955h5.573v-2.397H1.034zM10.652 10.63s-.463 4.801-.54 6.21c-.058 1.07.27 3.702.27 3.702l3.28-.04s.27-2.428.136-3.703c-.146-1.373-.495-6.17-.495-6.17h-2.651zM9.124 23.874h5.573v-2.397H9.124zM17.123 23.914h5.574v-2.397h-5.574zM4.225 7.034l7.618-4.382 7.483 4.382H4.225zM13.485 0h-2.92L0 6.242l.05 3.174h23.9L24 6.191 13.484 0z"/></g></svg>