<svg width="23" height="29" viewBox="0 0 23 29" xmlns="http://www.w3.org/2000/svg"><title>CB81A78D-9009-45AE-A218-E1DA1366B998</title><path d="M18.735 16.445c0 .647-.382 1.172-.853 1.172H5.445c-.471 0-.853-.525-.853-1.172 0-.647.382-1.172.853-1.172h12.437c.47 0 .853.525.853 1.172m-2.764 4.828c0 .673-.437 1.219-.975 1.219H5.81c-.539 0-.975-.546-.975-1.219s.436-1.218.975-1.218h9.185c.538 0 .975.545.975 1.218m-.081-9.656c0 .673-.437 1.219-.976 1.219H5.73c-.54 0-.976-.546-.976-1.22 0-.673.437-1.218.976-1.218h9.184c.54 0 .976.545.976 1.219m2.926-4.406c0 .673-.437 1.218-.975 1.218H5.404c-.538 0-.975-.545-.975-1.218 0-.674.437-1.219.975-1.219h12.437c.538 0 .975.545.975 1.219m.97-4.234a.76.76 0 0 1 .762.758v21.582a.76.76 0 0 1-.762.757H3.485a.76.76 0 0 1-.763-.757V3.735a.76.76 0 0 1 .763-.758h16.3M20.345 0H2.656A2.659 2.659 0 0 0 0 2.656V26.24a2.658 2.658 0 0 0 2.656 2.655h17.688a2.659 2.659 0 0 0 2.655-2.655V2.656A2.659 2.659 0 0 0 20.344 0" fill="#0088C2" fill-rule="evenodd"/></svg>